<svg version="1.1" id="main" xmlns="http://www.w3.org/2000/svg"
     xmlns:xlink="http://www.w3.org/1999/xlink"
     x="0px" y="0px" viewBox="0 0 1007 461"
     style="enable-background:new 0 0 1007 461;"
     transform="translate(0,0)">
  <link rel="stylesheet" type="text/css" media="screen" xlink:href="../css/svg.select.css"/>
  <script xlink:href="../js/app/rack/svg/svg.min.js"></script>
  <script xlink:href="../js/app/rack/svg/svg.draggable.min.js"></script>
  <script xlink:href="../js/app/rack/svg/svg.select.min.js"></script>
  <script xlink:href="../js/app/rack/svg/svg.resize.min.js"></script>
  <script xlink:href="../js/app/rack/svg/svg.pan-zoom.min.js"></script>
  <script>
    var isEdit = "false";
    var initData = new Map();
    var no = "";
    var svg1 = SVG("main");
    var svg1Group = svg1.group();
    var nodeList = svg1Group.node.childNodes;

    //单击时生成图形
    function svgClick(evt){
      isEdit = document.getElementById('main').getAttribute("isEdit");
      var initList = document.getElementById('main').getAttribute("initData");
      no = document.getElementById('main').getAttribute("no");
      if(initList){
        var kv1 = initList.split(";");
        for(var i in kv1){
          var kv2 = kv1[i].split(":");
          if(kv2.length == 2) initData.set(kv2[0],kv2[1]);
        }
      }
      if(isEdit == "false"){
        return;
      }
      if(isEdit == "true"){
        if(initData){
          if(initData.get(no)){

            return;
          }
        }

        var rect = svg1.rect(100,30);
        rect.attr("style", "stroke-width:1;stroke:rgb(0,0,0);fill:orange;fill-opacity:0.5;stroke:gray;" );
        rect.attr( "x",evt.offsetX);
        rect.attr( "y",evt.offsetY);
        rect.attr( "name",no);
        rect.attr( "text",no);
        rect.attr( "ondblclick","rectDblClicked(evt)");
        <!--//rect.panZoom(2,{zoomMin: 0.5, zoomMax:2});-->
        <!-- rect.attr("transform","translate(170 145) scale(1.5, 1.5) translate(-170 -145)"); -->
        <!-- rect.selectize({deepSelect:true}); -->
        <!--var rect = document.createElementNS( "http://www.w3.org/2000/svg", "rect" );-->
        <!--rect.setAttribute( "ondblclick","rectDblClicked(evt)");-->
        <!--rect.setAttribute( "width", 100 );-->
        <!--rect.setAttribute( "height", 30 );-->
        <!--rect.setAttribute("style", "stroke-width:1;stroke:rgb(0,0,0);fill:orange;fill-opacity:0.5;stroke:gray;" );-->
        <!--var mg = document.getElementById("mgroup");-->
        <!--mg.appendChild(rect);-->
        <!--rect.setAttribute( "x",evt.offsetX);-->
        <!--rect.setAttribute( "y",evt.offsetY);-->
        <!--rect.setAttribute( "name",no);-->
        <!--rect.setAttribute( "text",no);-->
        <!--rect.setAttribute( "ondblclick","rectDblClicked(evt)");-->
        initData.set(no,""+(evt.offsetX)+","+evt.offsetY);
        <!-- rect.attr( "onblur","rectBlur(evt)"); -->

      }
    }

    //双击编辑
    function rectDblClicked(evt){
      if(evt.target.instance.attr("onselect") == "true"){
        evt.target.instance.selectize(false);
        evt.target.instance.draggable(false);;
        evt.target.instance.attr("onselect","false");
      }else{
        evt.target.instance.draggable();
        evt.target.instance.selectize().resize();

        evt.target.instance.attr("onselect","true");
        evt.target.instance.attr("onblur","rectBlur(evt)");
      }
    }

    function rectBlur(evt){
      evt.target.selectize(false);
      evt.target.setAttribute("onselect","false");
    }

    <!--value {x, y , L , H , color}-->
    function svgOnLoad(){
      initData.forEach(function (value, key, map) {
        var point = value.split(",");
        var rect = svg1.rect(point[2],point[3]);
        rect.attr("style", "fill:"+point[4]+";stroke-width:1;stroke:rgb(0,0,0);fill-opacity:0.5;stroke:gray;" );
        rect.attr( "x",point[0]);
        rect.attr( "y",point[1]);
        rect.attr("name",key);
        rect.draggable();
        rect.selectize().resize();
        rect.attr( "ondblclick",rectDblClicked(MouseEvent));
      });
    }

  </script>
<style type="text/css">
	.st0{clip-path:url(#SVGID_2_);fill:#6FDFCD;}
	.st1{clip-path:url(#SVGID_4_);fill:#6FDFCD;}
	.st2{clip-path:url(#SVGID_6_);fill:#6FDFCD;}
	.st3{clip-path:url(#SVGID_8_);fill:#6FDFCD;}
	.st4{clip-path:url(#SVGID_10_);fill:#6FDFCD;}
	.st5{clip-path:url(#SVGID_12_);fill:#D4DEF5;}
	.st6{clip-path:url(#SVGID_14_);fill:#D4DEF5;}
	.st7{font-family:'PingFangSC-Medium-GBpc-EUC-H';}
	.st8{font-size:11px;}
	.st9{clip-path:url(#SVGID_16_);}
	.st10{clip-path:url(#SVGID_18_);}
	.st11{clip-path:url(#SVGID_20_);fill:#6FDFCD;}
	.st12{clip-path:url(#SVGID_22_);fill:#6FDFCD;}
	.st13{clip-path:url(#SVGID_24_);fill:#6FDFCD;}
	.st14{clip-path:url(#SVGID_26_);fill:none;stroke:#EC376C;stroke-miterlimit:10;stroke-dasharray:6,6;}
	.st15{clip-path:url(#SVGID_28_);fill:none;stroke:#EC376C;stroke-miterlimit:10;stroke-dasharray:6,6;}
	.st16{clip-path:url(#SVGID_30_);}
	.st17{clip-path:url(#SVGID_32_);fill:#3D5291;}
	.st18{clip-path:url(#SVGID_34_);fill:#D4DEF5;}
	.st19{clip-path:url(#SVGID_36_);fill:#D4DEF5;}
	.st20{fill:#FFFFFF;}
	.st21{clip-path:url(#SVGID_38_);fill:#747ADD;}
	.st22{clip-path:url(#SVGID_40_);fill:none;stroke:#EC376C;stroke-miterlimit:10;stroke-dasharray:6,6;}
	.st23{clip-path:url(#SVGID_42_);fill:none;stroke:#EC376C;stroke-miterlimit:10;stroke-dasharray:6,6;}
	.st24{clip-path:url(#SVGID_44_);fill:none;stroke:#EC376C;stroke-miterlimit:10;stroke-dasharray:6,6;}
	.st25{clip-path:url(#SVGID_46_);fill:none;stroke:#EC376C;stroke-miterlimit:10;stroke-dasharray:6,6;}
	.st26{clip-path:url(#SVGID_48_);fill:none;stroke:#EC376C;stroke-miterlimit:10;stroke-dasharray:6,6;}
	.st27{clip-path:url(#SVGID_50_);fill:#747ADD;}
	.st28{clip-path:url(#SVGID_52_);fill:#747ADD;}
	.st29{clip-path:url(#SVGID_54_);fill:#747ADD;}
	.st30{clip-path:url(#SVGID_56_);fill:#747ADD;}
	.st31{clip-path:url(#SVGID_58_);fill:#ADBCCF;}
	.st32{clip-path:url(#SVGID_60_);fill:#ADBCCF;}
	.st33{clip-path:url(#SVGID_62_);fill:#ADBCCF;}
	.st34{clip-path:url(#SVGID_64_);fill:#ADBCCF;}
	.st35{clip-path:url(#SVGID_66_);fill:#ADBCCF;}
	.st36{clip-path:url(#SVGID_68_);fill:#ADBCCF;}
	.st37{clip-path:url(#SVGID_70_);fill:#ADBCCF;}
	.st38{clip-path:url(#SVGID_72_);fill:#ADBCCF;}
	.st39{clip-path:url(#SVGID_74_);fill:#ADBCCF;}
	.st40{clip-path:url(#SVGID_76_);fill:#ADBCCF;}
	.st41{clip-path:url(#SVGID_78_);fill:#ADBCCF;}
	.st42{clip-path:url(#SVGID_80_);fill:#ADBCCF;}
	.st43{clip-path:url(#SVGID_82_);fill:#ADBCCF;}
	.st44{clip-path:url(#SVGID_84_);fill:#ADBCCF;}
	.st45{clip-path:url(#SVGID_86_);fill:#ADBCCF;}
	.st46{clip-path:url(#SVGID_88_);fill:#ADBCCF;}
	.st47{clip-path:url(#SVGID_90_);fill:#ADBCCF;}
	.st48{clip-path:url(#SVGID_92_);fill:#ADBCCF;}
	.st49{clip-path:url(#SVGID_94_);}
	.st50{clip-path:url(#SVGID_96_);fill:#ADBCCF;}
	.st51{clip-path:url(#SVGID_98_);fill:#ADBCCF;}
	.st52{clip-path:url(#SVGID_100_);fill:#ADBCCF;}
	.st53{clip-path:url(#SVGID_102_);fill:#ADBCCF;}
	.st54{clip-path:url(#SVGID_104_);fill:#ADBCCF;}
	.st55{clip-path:url(#SVGID_106_);fill:#ADBCCF;}
	.st56{clip-path:url(#SVGID_108_);fill:none;stroke:#EC376C;stroke-width:10;stroke-miterlimit:10;stroke-dasharray:1,1,12,1,1,12;}
	.st57{clip-path:url(#SVGID_110_);fill:#747ADD;}
	.st58{clip-path:url(#SVGID_112_);fill:#747ADD;}
	.st59{clip-path:url(#SVGID_114_);fill:#747ADD;}
	.st60{clip-path:url(#SVGID_116_);fill:#747ADD;}
	.st61{clip-path:url(#SVGID_118_);fill:#747ADD;}
	.st62{clip-path:url(#SVGID_120_);fill:#747ADD;}
	.st63{clip-path:url(#SVGID_122_);fill:#747ADD;}
</style>
<switch>

	<g id="mgroup" onclick="svgClick(evt)" transform="translate(0,0)" >
		<desc>无锡大通工厂地图</desc>
		<g>
			<defs>
				<rect id="SVGID_1_" x="114" y="32" width="220" height="54"/>
			</defs>
			<clipPath id="SVGID_2_">
				<use xlink:href="#SVGID_1_"  style="overflow:visible;"/>
			</clipPath>
			<rect x="109" y="27" class="st0" width="230" height="64"/>
		</g>
		<g>
			<defs>
				<rect id="SVGID_3_" x="493" y="32" width="277" height="67"/>
			</defs>
			<clipPath id="SVGID_4_">
				<use xlink:href="#SVGID_3_"  style="overflow:visible;"/>
			</clipPath>
			<rect x="488" y="27" class="st1" width="287" height="77"/>
		</g>
		<g>
			<defs>
				<polygon id="SVGID_5_" points="158,140 158,207 114,207 114,140 114,86 449,86 449,140 				"/>
			</defs>
			<clipPath id="SVGID_6_">
				<use xlink:href="#SVGID_5_"  style="overflow:visible;"/>
			</clipPath>
			<rect x="109" y="81" class="st2" width="345" height="131"/>
		</g>
		<g>
			<defs>
				<rect id="SVGID_7_" x="162" y="189" width="277" height="126"/>
			</defs>
			<clipPath id="SVGID_8_">
				<use xlink:href="#SVGID_7_"  style="overflow:visible;"/>
			</clipPath>
			<rect x="157" y="184" class="st3" width="287" height="136"/>
		</g>
		<path d="M193.1,58.3l-0.7,0.7c-0.5-0.5-1.1-1-1.9-1.6l0.7-0.7C192,57.3,192.6,57.8,193.1,58.3z M193.2,60.1
			c-0.5,1.4-1,2.7-1.6,3.9l-1-0.5c0.6-1.3,1.2-2.6,1.6-3.9L193.2,60.1z M193.3,55.7l-0.7,0.7c-0.4-0.5-1-1-1.8-1.6l0.8-0.7
			C192.2,54.6,192.8,55.1,193.3,55.7z M195.1,64l-0.2-1c0.3,0,0.7,0.1,1,0.1c0.3,0,0.4-0.2,0.4-0.5V60h-2.9v-1h2.9v-1.1h-1.7v-0.8
			c-0.4,0.3-0.7,0.5-1.1,0.7L193,57c1.3-0.8,2.4-1.7,3.2-2.9h0.9c0.7,1.1,1.9,2.1,3.4,2.8l-0.6,0.9c-0.4-0.2-0.8-0.4-1.2-0.7v0.8
			h-1.4V59h2.7v1h-2.7v2.9c0,0.7-0.4,1.1-1.1,1.1H195.1z M195.4,61c-0.4,1-0.9,1.9-1.5,2.7L193,63c0.6-0.7,1.1-1.5,1.5-2.5L195.4,61
			z M198.6,56.9c-0.7-0.5-1.4-1.2-1.9-1.9c-0.5,0.7-1.1,1.3-1.8,1.9H198.6z M200.3,62.9l-0.8,0.6c-0.4-0.7-0.9-1.6-1.5-2.5l0.8-0.5
			C199.4,61.4,199.9,62.3,200.3,62.9z M206.2,59.5c-0.1-0.2-0.3-0.5-0.5-0.7l1-0.3c0.2,0.3,0.4,0.6,0.6,1h4.1v0.9h-3.9
			c0.3,0.5,0.6,0.9,1.1,1.3c0.6-0.4,1.1-0.8,1.5-1.2l0.7,0.6c-0.4,0.4-0.9,0.8-1.5,1.2c0.6,0.4,1.4,0.8,2.3,1l-0.6,0.9
			c-2-0.7-3.5-1.9-4.4-3.7c-0.4,0.5-1,0.9-1.6,1.3V63c0.8-0.2,1.5-0.4,2.2-0.6l0.2,0.9c-1,0.3-2.2,0.6-3.6,0.8l-0.2-0.9
			c0.3-0.1,0.4-0.3,0.4-0.5v-0.5c-0.6,0.3-1.2,0.5-1.8,0.7l-0.5-0.9c1.7-0.4,3-1,3.9-1.7h-3.8v-0.9H206.2z M205.3,54v5h-1.1v-1.4
			c-0.7,0.4-1.4,0.7-2.2,1l-0.4-0.9c1-0.3,1.9-0.7,2.6-1.1V54H205.3z M204,55.4l-0.5,0.8c-0.6-0.4-1.1-0.8-1.7-1l0.6-0.8
			C202.9,54.7,203.5,55,204,55.4z M208,55.2V54h1v1.2h2.2v0.9h-2.2v1.4h1.9v0.9h-4.9v-0.9h1.9v-1.4h-2.2v-0.9H208z M222.5,58.4v1
			h-10v-1H222.5z M226.5,55.3c0.2-0.5,0.4-0.9,0.6-1.4l1,0.2c-0.2,0.4-0.3,0.8-0.5,1.2h5.5v1h-6c-0.4,0.8-0.9,1.6-1.4,2.2h2.5v-1.5
			h1.1v1.5h3.3v1h-3.3v1.4h4.1v1h-4.1v2.3h-1.1v-2.3h-4.3v-1h4.3v-1.4h-3.5l-0.2-1c0.6-0.6,1.1-1.3,1.6-2.2h-2v-1H226.5z M236,55.8
			v8.3h-1v-8.3H236z M238.1,55.8l-0.9,0.5c-0.4-0.8-0.9-1.4-1.3-2l0.9-0.4C237.3,54.5,237.8,55.1,238.1,55.8z M241.6,56.9v5.3h-4.4
			v-5.3H241.6z M240.7,59.1v-1.3h-2.4v1.3H240.7z M240.7,60h-2.4v1.3h2.4V60z M241.9,64l-0.3-1l0.9,0c0.3,0,0.5-0.2,0.5-0.6v-7.1
			h-4.1v-1h5.2v8.3c0,0.8-0.4,1.3-1.2,1.3H241.9z M250.3,55.6c0.5,0.4,0.7,1,0.7,1.7c0,0.7-0.3,1.3-0.8,1.9
			c-0.3,0.3-0.8,0.7-1.6,1.3c-0.8,0.6-1.4,1.1-1.5,1.5h3.9V63h-5.4c0-0.8,0.3-1.5,0.8-2.1c0.3-0.3,0.9-0.8,1.8-1.4
			c0.5-0.4,0.9-0.7,1.1-0.9c0.4-0.4,0.5-0.8,0.5-1.3c0-0.4-0.1-0.8-0.4-1s-0.6-0.3-1.1-0.3c-0.5,0-0.9,0.2-1.1,0.5
			c-0.3,0.3-0.4,0.8-0.4,1.4h-1.2c0-0.9,0.3-1.6,0.8-2.1c0.5-0.6,1.2-0.8,2-0.8C249.2,55,249.8,55.2,250.3,55.6z M257.7,55.1v1h-4.1
			v2.3h3.9v1h-3.9V63h-1.2v-7.9H257.7z"/>
		<path d="M602.1,65.3l-0.7,0.7c-0.5-0.5-1.1-1-1.9-1.6l0.7-0.7C601,64.3,601.6,64.8,602.1,65.3z M602.2,67.1
			c-0.5,1.4-1,2.7-1.6,3.9l-1-0.5c0.6-1.3,1.2-2.6,1.6-3.9L602.2,67.1z M602.3,62.7l-0.7,0.7c-0.4-0.5-1-1-1.8-1.6l0.8-0.7
			C601.2,61.6,601.8,62.1,602.3,62.7z M604.1,71l-0.2-1c0.3,0,0.7,0.1,1,0.1c0.3,0,0.4-0.2,0.4-0.5V67h-2.9v-1h2.9v-1.1h-1.7v-0.8
			c-0.4,0.3-0.7,0.5-1.1,0.7L602,64c1.3-0.8,2.4-1.7,3.2-2.9h0.9c0.7,1.1,1.9,2.1,3.4,2.8l-0.6,0.9c-0.4-0.2-0.8-0.4-1.2-0.7v0.8
			h-1.4V66h2.7v1h-2.7v2.9c0,0.7-0.4,1.1-1.1,1.1H604.1z M604.4,68c-0.4,1-0.9,1.9-1.5,2.7L602,70c0.6-0.7,1.1-1.5,1.5-2.5L604.4,68
			z M607.6,63.9c-0.7-0.5-1.4-1.2-1.9-1.9c-0.5,0.7-1.1,1.3-1.8,1.9H607.6z M609.3,69.9l-0.8,0.6c-0.4-0.7-0.9-1.6-1.5-2.5l0.8-0.5
			C608.4,68.4,608.9,69.3,609.3,69.9z M615.2,66.5c-0.1-0.2-0.3-0.5-0.5-0.7l1-0.3c0.2,0.3,0.4,0.6,0.6,1h4.1v0.9h-3.9
			c0.3,0.5,0.6,0.9,1.1,1.3c0.6-0.4,1.1-0.8,1.5-1.2l0.7,0.6c-0.4,0.4-0.9,0.8-1.5,1.2c0.6,0.4,1.4,0.8,2.3,1l-0.6,0.9
			c-2-0.7-3.5-1.9-4.4-3.7c-0.4,0.5-1,0.9-1.6,1.3V70c0.8-0.2,1.5-0.4,2.2-0.6l0.2,0.9c-1,0.3-2.2,0.6-3.6,0.8l-0.2-0.9
			c0.3-0.1,0.4-0.3,0.4-0.5v-0.5c-0.6,0.3-1.2,0.5-1.8,0.7l-0.5-0.9c1.7-0.4,3-1,3.9-1.7h-3.8v-0.9H615.2z M614.3,61v5h-1.1v-1.4
			c-0.7,0.4-1.4,0.7-2.2,1l-0.4-0.9c1-0.3,1.9-0.7,2.6-1.1V61H614.3z M613,62.4l-0.5,0.8c-0.6-0.4-1.1-0.8-1.7-1l0.6-0.8
			C611.9,61.7,612.5,62,613,62.4z M617,62.2V61h1v1.2h2.2v0.9h-2.2v1.4h1.9v0.9h-4.9v-0.9h1.9v-1.4h-2.2v-0.9H617z M631.4,69v1h-9.9
			v-1H631.4z M630.4,62.1v1h-7.9v-1H630.4z M635.5,62.3c0.2-0.5,0.4-0.9,0.6-1.4l1,0.2c-0.2,0.4-0.3,0.8-0.5,1.2h5.5v1h-6
			c-0.4,0.8-0.9,1.6-1.4,2.2h2.5v-1.5h1.1v1.5h3.3v1h-3.3v1.4h4.1v1h-4.1v2.3h-1.1v-2.3h-4.3v-1h4.3v-1.4h-3.5l-0.2-1
			c0.6-0.6,1.1-1.3,1.6-2.2h-2v-1H635.5z M645,62.8v8.3h-1v-8.3H645z M647.1,62.8l-0.9,0.5c-0.4-0.8-0.9-1.4-1.3-2l0.9-0.4
			C646.3,61.5,646.8,62.1,647.1,62.8z M650.6,63.9v5.3h-4.4v-5.3H650.6z M649.7,66.1v-1.3h-2.4v1.3H649.7z M649.7,67h-2.4v1.3h2.4
			V67z M650.9,71l-0.3-1l0.9,0c0.3,0,0.5-0.2,0.5-0.6v-7.1h-4.1v-1h5.2v8.3c0,0.8-0.4,1.3-1.2,1.3H650.9z"/>
		<path d="M254.5,114.6c-0.3,1.2-0.6,2.2-1.1,3l-0.9-0.6c0.5-0.8,0.8-1.7,1-2.7L254.5,114.6z M255.7,109.8c-0.4-0.6-0.7-1.1-1.1-1.5
			l0.9-0.4c0.4,0.5,0.8,1,1.2,1.6l-0.7,0.3h2.3c0.4-0.6,0.8-1.3,1.1-2l1,0.4c-0.3,0.6-0.6,1.2-1,1.6h1.7v3.8h-7.2v-3.8H255.7z
			 M260,110.8H255v1.8h5.1V110.8z M256.3,118c-0.8,0-1.1-0.4-1.1-1.2v-2.3h1.1v2c0,0.3,0.1,0.5,0.4,0.5h2.3c0.2,0,0.3-0.1,0.4-0.2
			c0.1-0.1,0.2-0.6,0.2-1.3l1,0.3c-0.1,1-0.3,1.6-0.5,1.8c-0.2,0.2-0.5,0.3-1,0.3H256.3z M258.8,115.7l-1,0.4
			c-0.3-0.7-0.6-1.4-0.9-1.9l0.9-0.3C258.2,114.5,258.6,115.1,258.8,115.7z M262.5,116.9l-1,0.4c-0.4-1.1-0.8-2-1.3-2.8l1-0.3
			C261.8,115,262.2,115.9,262.5,116.9z M268.2,113.5c-0.1-0.2-0.3-0.5-0.5-0.7l1-0.3c0.2,0.3,0.4,0.6,0.6,1h4.1v0.9h-3.9
			c0.3,0.5,0.6,0.9,1.1,1.3c0.6-0.4,1.1-0.8,1.5-1.2l0.7,0.6c-0.4,0.4-0.9,0.8-1.5,1.2c0.6,0.4,1.4,0.8,2.3,1l-0.6,0.9
			c-2-0.7-3.5-1.9-4.4-3.7c-0.4,0.5-1,0.9-1.6,1.3v1.3c0.8-0.2,1.5-0.4,2.2-0.6l0.2,0.9c-1,0.3-2.2,0.6-3.6,0.8l-0.2-0.9
			c0.3-0.1,0.4-0.3,0.4-0.5v-0.5c-0.6,0.3-1.2,0.5-1.8,0.7l-0.5-0.9c1.7-0.4,3-1,3.9-1.7h-3.8v-0.9H268.2z M267.3,108v5h-1.1v-1.4
			c-0.7,0.4-1.4,0.7-2.2,1l-0.4-0.9c1-0.3,1.9-0.7,2.6-1.1V108H267.3z M266,109.4l-0.5,0.8c-0.6-0.4-1.1-0.8-1.7-1l0.6-0.8
			C264.9,108.7,265.5,109,266,109.4z M270,109.2V108h1v1.2h2.2v0.9h-2.2v1.4h1.9v0.9h-4.9v-0.9h1.9v-1.4h-2.2v-0.9H270z
			 M284.5,112.4v1h-10v-1H284.5z M288.5,109.3c0.2-0.5,0.4-0.9,0.6-1.4l1,0.2c-0.2,0.4-0.3,0.8-0.5,1.2h5.5v1h-6
			c-0.4,0.8-0.9,1.6-1.4,2.2h2.5v-1.5h1.1v1.5h3.3v1h-3.3v1.4h4.1v1h-4.1v2.3h-1.1v-2.3h-4.3v-1h4.3v-1.4h-3.5l-0.2-1
			c0.6-0.6,1.1-1.3,1.6-2.2h-2v-1H288.5z M298,109.8v8.3h-1v-8.3H298z M300.1,109.8l-0.9,0.5c-0.4-0.8-0.9-1.4-1.3-2l0.9-0.4
			C299.3,108.5,299.8,109.1,300.1,109.8z M303.6,110.9v5.3h-4.4v-5.3H303.6z M302.7,113.1v-1.3h-2.4v1.3H302.7z M302.7,114h-2.4v1.3
			h2.4V114z M303.9,118l-0.3-1l0.9,0c0.3,0,0.5-0.2,0.5-0.6v-7.1h-4.1v-1h5.2v8.3c0,0.8-0.4,1.3-1.2,1.3H303.9z"/>
		<path d="M273.5,255.6c-0.3,1.2-0.6,2.2-1.1,3l-0.9-0.6c0.5-0.8,0.8-1.7,1-2.7L273.5,255.6z M274.7,250.8c-0.4-0.6-0.7-1.1-1.1-1.5
			l0.9-0.4c0.4,0.5,0.8,1,1.2,1.6l-0.7,0.3h2.3c0.4-0.6,0.8-1.3,1.1-2l1,0.4c-0.3,0.6-0.6,1.2-1,1.6h1.7v3.8h-7.2v-3.8H274.7z
			 M279,251.8H274v1.8h5.1V251.8z M275.3,259c-0.8,0-1.1-0.4-1.1-1.2v-2.3h1.1v2c0,0.3,0.1,0.5,0.4,0.5h2.3c0.2,0,0.3-0.1,0.4-0.2
			c0.1-0.1,0.2-0.6,0.2-1.3l1,0.3c-0.1,1-0.3,1.6-0.5,1.8c-0.2,0.2-0.5,0.3-1,0.3H275.3z M277.8,256.7l-1,0.4
			c-0.3-0.7-0.6-1.4-0.9-1.9l0.9-0.3C277.2,255.5,277.6,256.1,277.8,256.7z M281.5,257.9l-1,0.4c-0.4-1.1-0.8-2-1.3-2.8l1-0.3
			C280.8,256,281.2,256.9,281.5,257.9z M287.2,254.5c-0.1-0.2-0.3-0.5-0.5-0.7l1-0.3c0.2,0.3,0.4,0.6,0.6,1h4.1v0.9h-3.9
			c0.3,0.5,0.6,0.9,1.1,1.3c0.6-0.4,1.1-0.8,1.5-1.2l0.7,0.6c-0.4,0.4-0.9,0.8-1.5,1.2c0.6,0.4,1.4,0.8,2.3,1l-0.6,0.9
			c-2-0.7-3.5-1.9-4.4-3.7c-0.4,0.5-1,0.9-1.6,1.3v1.3c0.8-0.2,1.5-0.4,2.2-0.6l0.2,0.9c-1,0.3-2.2,0.6-3.6,0.8l-0.2-0.9
			c0.3-0.1,0.4-0.3,0.4-0.5v-0.5c-0.6,0.3-1.2,0.5-1.8,0.7l-0.5-0.9c1.7-0.4,3-1,3.9-1.7h-3.8v-0.9H287.2z M286.3,249v5h-1.1v-1.4
			c-0.7,0.4-1.4,0.7-2.2,1l-0.4-0.9c1-0.3,1.9-0.7,2.6-1.1V249H286.3z M285,250.4l-0.5,0.8c-0.6-0.4-1.1-0.8-1.7-1l0.6-0.8
			C283.9,249.7,284.5,250,285,250.4z M289,250.2V249h1v1.2h2.2v0.9h-2.2v1.4h1.9v0.9h-4.9v-0.9h1.9v-1.4h-2.2v-0.9H289z M303.4,257
			v1h-9.9v-1H303.4z M302.4,250.1v1h-7.9v-1H302.4z M307.5,250.3c0.2-0.5,0.4-0.9,0.6-1.4l1,0.2c-0.2,0.4-0.3,0.8-0.5,1.2h5.5v1h-6
			c-0.4,0.8-0.9,1.6-1.4,2.2h2.5v-1.5h1.1v1.5h3.3v1h-3.3v1.4h4.1v1h-4.1v2.3h-1.1v-2.3h-4.3v-1h4.3v-1.4h-3.5l-0.2-1
			c0.6-0.6,1.1-1.3,1.6-2.2h-2v-1H307.5z M317,250.8v8.3h-1v-8.3H317z M319.1,250.8l-0.9,0.5c-0.4-0.8-0.9-1.4-1.3-2l0.9-0.4
			C318.3,249.5,318.8,250.1,319.1,250.8z M322.6,251.9v5.3h-4.4v-5.3H322.6z M321.7,254.1v-1.3h-2.4v1.3H321.7z M321.7,255h-2.4v1.3
			h2.4V255z M322.9,259l-0.3-1l0.9,0c0.3,0,0.5-0.2,0.5-0.6v-7.1h-4.1v-1h5.2v8.3c0,0.8-0.4,1.3-1.2,1.3H322.9z"/>
		<g>
			<defs>
				<rect id="SVGID_9_" x="63" y="208" width="96" height="107"/>
			</defs>
			<clipPath id="SVGID_10_">
				<use xlink:href="#SVGID_9_"  style="overflow:visible;"/>
			</clipPath>
			<rect x="58" y="203" class="st4" width="106" height="117"/>
		</g>
		<g>
			<defs>
				<rect id="SVGID_11_" x="63" y="86" width="51" height="51"/>
			</defs>
			<clipPath id="SVGID_12_">
				<use xlink:href="#SVGID_11_"  style="overflow:visible;"/>
			</clipPath>
			<rect x="58" y="81" class="st5" width="61" height="61"/>
		</g>
		<g>
			<defs>
				<rect id="SVGID_13_" x="63" y="140" width="51" height="67"/>
			</defs>
			<clipPath id="SVGID_14_">
				<use xlink:href="#SVGID_13_"  style="overflow:visible;"/>
			</clipPath>
			<rect x="58" y="135" class="st6" width="61" height="77"/>
		</g>
		<text transform="matrix(1 0 0 1 71 169)" class="st7 st8">总装中</text>
		<text transform="matrix(1 0 0 1 71 185)" class="st7 st8">转辅房</text>
		<g>
			<defs>
				<rect id="SVGID_15_" x="102" y="245" width="25" height="16"/>
			</defs>
			<clipPath id="SVGID_16_">
				<use xlink:href="#SVGID_15_"  style="overflow:visible;"/>
			</clipPath>
			<g class="st9">
				<text transform="matrix(1 0 0 1 102 257)" class="st7 st8">总装</text>
			</g>
			<g class="st9">
				<text transform="matrix(1 0 0 1 102 273)" class="st7 st8">  </text>
			</g>
		</g>
		<g>
			<defs>
				<rect id="SVGID_17_" x="76" y="266" width="78" height="8"/>
			</defs>
			<clipPath id="SVGID_18_">
				<use xlink:href="#SVGID_17_"  style="overflow:visible;"/>
			</clipPath>
			<path class="st10" d="M79.9,270.9v0.6l-3.5,1.5v-0.7l2.7-1.1l-2.7-1.1v-0.7L79.9,270.9z M84.1,269.3h-0.7
				c-0.1-0.5-0.4-0.7-0.9-0.7c-0.4,0-0.6,0.2-0.8,0.5c-0.2,0.3-0.3,0.7-0.3,1.2c0,0,0,0,0,0.1h0c0.1-0.2,0.3-0.4,0.5-0.5
				c0.2-0.1,0.4-0.2,0.7-0.2c0.5,0,0.9,0.2,1.2,0.5c0.3,0.3,0.4,0.7,0.4,1.2c0,0.5-0.2,0.9-0.5,1.2c-0.3,0.3-0.8,0.5-1.2,0.5
				c-0.6,0-1.1-0.2-1.4-0.7c-0.3-0.4-0.5-1-0.5-1.8c0-0.8,0.2-1.5,0.5-2c0.3-0.5,0.8-0.8,1.4-0.8C83.4,267.9,83.9,268.3,84.1,269.3z
				 M81.6,270.6c-0.2,0.2-0.3,0.5-0.3,0.8c0,0.3,0.1,0.6,0.3,0.8c0.2,0.2,0.4,0.3,0.7,0.3c0.3,0,0.6-0.1,0.7-0.3
				c0.2-0.2,0.3-0.5,0.3-0.8c0-0.3-0.1-0.6-0.3-0.8c-0.2-0.2-0.4-0.3-0.7-0.3C82.1,270.3,81.8,270.4,81.6,270.6z M87.7,269.9
				c0.2-0.2,0.3-0.4,0.5-0.5c0.2-0.1,0.4-0.1,0.6-0.1c0.4,0,0.7,0.1,0.9,0.4c0.2,0.2,0.4,0.6,0.4,1v2.4h-0.7v-2.2
				c0-0.3-0.1-0.5-0.2-0.6c-0.1-0.1-0.3-0.2-0.6-0.2c-0.2,0-0.4,0.1-0.5,0.2c-0.1,0.2-0.2,0.4-0.2,0.6v2.2h-0.7v-2.2
				c0-0.6-0.3-0.9-0.7-0.9c-0.2,0-0.4,0.1-0.6,0.3c-0.2,0.2-0.2,0.4-0.2,0.6v2.2h-0.7v-3.6h0.7v0.4c0.3-0.3,0.6-0.5,1-0.5
				C87.1,269.3,87.5,269.5,87.7,269.9z M92.7,268l-0.1,1.3l1.2-0.5l0.2,0.6l-1.2,0.3l0.8,1l-0.5,0.4l-0.7-1.1l-0.7,1.1l-0.5-0.4
				l0.8-1l-1.2-0.3l0.2-0.6l1.2,0.5l-0.1-1.3H92.7z M97.5,268.3c0.3,0.3,0.5,0.6,0.5,1.1c0,0.4-0.2,0.8-0.5,1.2
				c-0.2,0.2-0.5,0.5-1,0.8c-0.5,0.4-0.9,0.7-1,0.9H98v0.7h-3.4c0-0.5,0.2-0.9,0.5-1.3c0.2-0.2,0.6-0.5,1.1-0.9
				c0.3-0.2,0.6-0.4,0.7-0.6c0.2-0.3,0.3-0.5,0.3-0.8c0-0.3-0.1-0.5-0.2-0.6s-0.4-0.2-0.7-0.2c-0.3,0-0.6,0.1-0.7,0.3
				c-0.2,0.2-0.3,0.5-0.3,0.9h-0.8c0-0.6,0.2-1,0.5-1.3c0.3-0.4,0.8-0.5,1.3-0.5C96.8,267.9,97.2,268,97.5,268.3z M106.4,268.3
				c0.3,0.3,0.5,0.6,0.5,1.1c0,0.4-0.2,0.8-0.5,1.2c-0.2,0.2-0.5,0.5-1,0.8c-0.5,0.4-0.9,0.7-1,0.9h2.5v0.7h-3.4
				c0-0.5,0.2-0.9,0.5-1.3c0.2-0.2,0.6-0.5,1.1-0.9c0.3-0.2,0.6-0.4,0.7-0.6c0.2-0.3,0.3-0.5,0.3-0.8c0-0.3-0.1-0.5-0.2-0.6
				s-0.4-0.2-0.7-0.2c-0.3,0-0.6,0.1-0.7,0.3c-0.2,0.2-0.3,0.5-0.3,0.9h-0.8c0-0.6,0.2-1,0.5-1.3c0.3-0.4,0.8-0.5,1.3-0.5
				C105.7,267.9,106.1,268,106.4,268.3z M110.5,269.9c0.2-0.2,0.3-0.4,0.5-0.5c0.2-0.1,0.4-0.1,0.6-0.1c0.4,0,0.7,0.1,0.9,0.4
				c0.2,0.2,0.4,0.6,0.4,1v2.4h-0.7v-2.2c0-0.3-0.1-0.5-0.2-0.6c-0.1-0.1-0.3-0.2-0.6-0.2c-0.2,0-0.4,0.1-0.5,0.2
				c-0.1,0.2-0.2,0.4-0.2,0.6v2.2h-0.7v-2.2c0-0.6-0.3-0.9-0.7-0.9c-0.2,0-0.4,0.1-0.6,0.3c-0.2,0.2-0.2,0.4-0.2,0.6v2.2h-0.7v-3.6
				h0.7v0.4c0.3-0.3,0.6-0.5,1-0.5C109.9,269.3,110.3,269.5,110.5,269.9z M115.6,268.1c0.1-0.3,0.3-0.6,0.4-0.9l0.7,0.1
				c-0.1,0.3-0.2,0.5-0.3,0.7h3.5v0.6H116c-0.3,0.5-0.6,1-0.9,1.4h1.6v-0.9h0.7v0.9h2.1v0.6h-2.1v0.9h2.6v0.6h-2.6v1.4h-0.7v-1.4
				h-2.8v-0.6h2.8v-0.9h-2.3l-0.2-0.6c0.4-0.4,0.7-0.8,1-1.4H114v-0.6H115.6z M123.6,271.7v-0.5h0.7v0.5h2.4v0.6h-2.4v0.7h2.7v0.6
				h-6.2V273h2.8v-0.7h-2.4v-0.6H123.6z M124.3,267.5v0.6h-0.7v0.9h0.8v0.6h-0.8v1.5H123v-1.5h-0.8c-0.1,0.7-0.3,1.2-0.8,1.6
				l-0.5-0.4c0.3-0.3,0.5-0.6,0.6-1.1h-0.8V269h0.8v-0.9H121v-0.6H124.3z M122.3,269h0.7v-0.9h-0.7V269z M125.4,267.7v2.4h-0.6v-2.4
				H125.4z M125.1,271.2l-0.1-0.6c0.3,0,0.6,0,0.9,0c0.1,0,0.2-0.1,0.2-0.3v-2.9h0.6v3.1c0,0.5-0.2,0.7-0.6,0.7H125.1z M128.1,270.7
				l-0.4-0.6c0.6-0.7,1.1-1.6,1.3-2.7l0.7,0.1c-0.1,0.3-0.1,0.6-0.2,0.9h1.3v-1.2h0.7v1.2h2.2v0.6h-2.2v1.4h2.1v0.6h-2.1v1.6h2.7
				v0.7h-6.2v-0.7h2.9v-1.6h-2v-0.6h2v-1.4h-1.5C128.8,269.8,128.5,270.3,128.1,270.7z M138.3,267.9h2.4v0.6h-1.2
				c-0.1,0.3-0.2,0.6-0.3,0.9h1.6v0.6h-5v0.9c0,1.1-0.3,2-0.7,2.6l-0.5-0.4c0.4-0.5,0.6-1.3,0.6-2.2v-1.6h1.4l-0.2-0.9h-1.2v-0.6
				h2.5c-0.1-0.2-0.2-0.4-0.3-0.6l0.7-0.1C138.1,267.4,138.2,267.6,138.3,267.9z M138.6,269.5c0.1-0.3,0.2-0.6,0.3-0.9H137l0.3,0.9
				H138.6z M143.4,267.5c-0.3,0.8-0.7,1.5-1,2.1c0.2,0,0.5-0.1,0.7-0.1c0.1-0.2,0.3-0.5,0.4-0.8l0.6,0.2c-0.6,1.1-1,1.9-1.4,2.4
				c0.4-0.1,0.9-0.2,1.4-0.4v0.6c-0.8,0.3-1.5,0.4-2.1,0.5l-0.2-0.6c0.1,0,0.2-0.1,0.3-0.2c0.2-0.2,0.5-0.6,0.8-1.2
				c-0.3,0-0.7,0.1-1,0.1l-0.2-0.6c0.1,0,0.2-0.1,0.3-0.2c0.3-0.6,0.6-1.3,0.9-2.1L143.4,267.5z M144.2,272.9
				c-0.7,0.3-1.5,0.5-2.3,0.6l-0.1-0.7c0.9-0.2,1.7-0.4,2.4-0.6V272.9z M147.7,269.1l-1.8,0.2c0,0.3,0,0.5,0.1,0.8l1.8-0.3l0.1,0.6
				l-1.8,0.3l0,0.2c0.1,0.3,0.1,0.6,0.2,0.9c0.3-0.3,0.6-0.7,0.9-1.1l0.5,0.4c-0.4,0.5-0.7,0.9-1.1,1.3c0.2,0.3,0.4,0.5,0.6,0.5
				c0.2,0,0.3-0.3,0.4-1l0.6,0.4c-0.2,0.9-0.5,1.4-0.9,1.4c-0.4,0-0.7-0.2-1-0.6c0-0.1-0.1-0.1-0.1-0.2c-0.5,0.4-1,0.6-1.6,0.8
				l-0.4-0.5c0.6-0.2,1.2-0.5,1.7-0.8c-0.1-0.3-0.2-0.6-0.3-1c0-0.1-0.1-0.3-0.1-0.5l-1.2,0.2l-0.1-0.6l1.2-0.2c0-0.3,0-0.5-0.1-0.8
				l-0.9,0.1l-0.1-0.6l1-0.1v-1.5h0.7v1.4l1.7-0.2L147.7,269.1z M147.5,268.1l-0.5,0.4c-0.2-0.3-0.4-0.6-0.8-0.9l0.5-0.3
				C147,267.6,147.3,267.8,147.5,268.1z"/>
		</g>
		<text transform="matrix(1 0 0 1 76 116)" class="st7 st8">A-P</text>
		<g>
			<defs>
				<polygon id="SVGID_19_" points="770,171 771,171 771,323 627,323 627,175 483,175 483,114 770,114 				"/>
			</defs>
			<clipPath id="SVGID_20_">
				<use xlink:href="#SVGID_19_"  style="overflow:visible;"/>
			</clipPath>
			<rect x="478" y="109" class="st11" width="298" height="219"/>
		</g>
		<g>
			<defs>
				<rect id="SVGID_21_" x="646" y="325" width="124" height="89"/>
			</defs>
			<clipPath id="SVGID_22_">
				<use xlink:href="#SVGID_21_"  style="overflow:visible;"/>
			</clipPath>
			<rect x="641" y="320" class="st12" width="134" height="99"/>
		</g>
		<g>
			<defs>
				<rect id="SVGID_23_" x="482" y="342" width="96" height="67"/>
			</defs>
			<clipPath id="SVGID_24_">
				<use xlink:href="#SVGID_23_"  style="overflow:visible;"/>
			</clipPath>
			<rect x="477" y="337" class="st13" width="106" height="77"/>
		</g>
		<g>
			<defs>
				<rect id="SVGID_25_" x="484" y="177" width="94" height="10"/>
			</defs>
			<clipPath id="SVGID_26_">
				<use xlink:href="#SVGID_25_"  style="overflow:visible;"/>
			</clipPath>
			<rect x="484" y="177" class="st14" width="94" height="10"/>
		</g>
		<g>
			<defs>
				<rect id="SVGID_27_" x="469" y="189" width="12" height="136"/>
			</defs>
			<clipPath id="SVGID_28_">
				<use xlink:href="#SVGID_27_"  style="overflow:visible;"/>
			</clipPath>
			<rect x="469" y="189" class="st15" width="12" height="136"/>
		</g>
		<path d="M682.5,207.3c0.2-0.5,0.4-0.9,0.6-1.4l1,0.2c-0.2,0.4-0.3,0.8-0.5,1.2h5.5v1h-6c-0.4,0.8-0.9,1.6-1.4,2.2h2.5v-1.5h1.1
			v1.5h3.3v1h-3.3v1.4h4.1v1h-4.1v2.3h-1.1v-2.3h-4.3v-1h4.3v-1.4h-3.5l-0.2-1c0.6-0.6,1.1-1.3,1.6-2.2h-2v-1H682.5z M695.7,206
			c-0.1,0.3-0.2,0.6-0.3,0.8h3.1v4.6c0.5-0.6,0.8-1.1,1-1.7l0.9,0.6c-0.5,1-1.2,1.8-1.9,2.5v2.3c0,0.7-0.3,1.1-1,1.1h-1.2l-0.3-1
			l1.1,0.1c0.2,0,0.3-0.1,0.3-0.3v-1.2L697,214c-1.5,0.9-3.4,1.6-5.6,1.9l-0.5-0.9c2.7-0.5,4.7-1.2,6-2h-6.1v-1h1.3v-5.2h2.2
			c0.1-0.3,0.2-0.6,0.3-1L695.7,206z M697.5,208.6v-0.8h-4.4v0.8H697.5z M697.5,210.2v-0.8h-4.4v0.8H697.5z M697.5,212v-0.9h-4.4
			v0.9H697.5z M704.5,207.3c0.2-0.5,0.4-0.9,0.6-1.4l1,0.2c-0.2,0.4-0.3,0.8-0.5,1.2h5.5v1h-6c-0.4,0.8-0.9,1.6-1.4,2.2h2.5v-1.5
			h1.1v1.5h3.3v1h-3.3v1.4h4.1v1h-4.1v2.3h-1.1v-2.3h-4.3v-1h4.3v-1.4h-3.5l-0.2-1c0.6-0.6,1.1-1.3,1.6-2.2h-2v-1H704.5z M714,207.8
			v8.3h-1v-8.3H714z M716.1,207.8l-0.9,0.5c-0.4-0.8-0.9-1.4-1.3-2l0.9-0.4C715.3,206.5,715.8,207.1,716.1,207.8z M719.6,208.9v5.3
			h-4.4v-5.3H719.6z M718.7,211.1v-1.3h-2.4v1.3H718.7z M718.7,212h-2.4v1.3h2.4V212z M719.9,216l-0.3-1l0.9,0
			c0.3,0,0.5-0.2,0.5-0.6v-7.1h-4.1v-1h5.2v8.3c0,0.8-0.4,1.3-1.2,1.3H719.9z"/>
		<path d="M681,367.1h-1.2c-0.2-0.8-0.6-1.1-1.4-1.1c-0.6,0-1,0.3-1.3,0.8c-0.3,0.5-0.5,1.1-0.5,1.9c0,0,0,0.1,0,0.1h0
			c0.2-0.4,0.5-0.6,0.8-0.8c0.3-0.2,0.7-0.2,1.1-0.2c0.8,0,1.4,0.2,1.8,0.7c0.5,0.5,0.7,1.1,0.7,1.9c0,0.8-0.3,1.4-0.8,1.9
			c-0.5,0.5-1.2,0.8-2,0.8c-1,0-1.7-0.4-2.2-1.1c-0.5-0.7-0.7-1.6-0.7-2.8c0-1.3,0.3-2.3,0.8-3.1c0.5-0.8,1.3-1.2,2.2-1.2
			C679.9,365,680.8,365.7,681,367.1z M677.2,369.2c-0.3,0.3-0.4,0.7-0.4,1.2c0,0.5,0.1,0.9,0.4,1.2c0.3,0.3,0.7,0.5,1.1,0.5
			c0.5,0,0.9-0.2,1.2-0.5c0.3-0.3,0.5-0.7,0.5-1.2c0-0.5-0.1-0.9-0.4-1.2c-0.3-0.3-0.7-0.5-1.2-0.5
			C677.9,368.8,677.5,368.9,677.2,369.2z M686.9,365.6c0.5,0.4,0.7,0.9,0.7,1.6c0,0.9-0.4,1.4-1.3,1.7c0.5,0.1,0.8,0.4,1.1,0.6
			c0.3,0.3,0.4,0.7,0.4,1.1c0,0.7-0.3,1.3-0.7,1.8c-0.5,0.5-1.2,0.7-2.1,0.7c-0.8,0-1.5-0.2-1.9-0.6c-0.6-0.5-0.9-1.1-0.9-2h1.2
			c0,0.5,0.2,0.9,0.5,1.2c0.3,0.3,0.7,0.4,1.1,0.4c0.5,0,0.9-0.2,1.2-0.4c0.3-0.3,0.4-0.6,0.4-1c0-0.5-0.1-0.8-0.4-1
			c-0.3-0.2-0.7-0.3-1.2-0.3h-0.6v-0.9h0.6c0.5,0,0.8-0.1,1.1-0.3c0.2-0.2,0.4-0.5,0.4-0.9s-0.1-0.7-0.3-0.9
			c-0.2-0.2-0.6-0.3-1.1-0.3c-0.5,0-0.8,0.1-1.1,0.4s-0.4,0.6-0.5,1.1h-1.2c0.1-0.8,0.4-1.4,0.9-1.8c0.5-0.4,1.1-0.6,1.9-0.6
			C685.8,365,686.4,365.2,686.9,365.6z M688.7,369.2v-1h10v1h-6.5l-0.3,1.1h5.3c-0.1,1.9-0.3,3-0.5,3.3c-0.3,0.3-0.8,0.5-1.6,0.5
			c-0.5,0-1,0-1.5-0.1l-0.4-0.9c0.6,0.1,1.1,0.1,1.6,0.1c0.6,0,0.9-0.1,1-0.3c0.1-0.2,0.2-0.8,0.3-1.6h-5.5l0.5-2H688.7z M697,364.3
			v3.2h-6.7v-3.2H697z M696,365.2h-4.6v1.3h4.6V365.2z M702.7,365.3c0.2-0.5,0.4-0.9,0.6-1.4l1,0.2c-0.2,0.4-0.3,0.8-0.5,1.2h5.5v1
			h-6c-0.4,0.8-0.9,1.6-1.4,2.2h2.5v-1.5h1.1v1.5h3.3v1h-3.3v1.4h4.1v1h-4.1v2.3h-1.1v-2.3H700v-1h4.3v-1.4h-3.5l-0.2-1
			c0.6-0.6,1.1-1.3,1.6-2.2h-2v-1H702.7z M715.9,364c-0.1,0.3-0.2,0.6-0.3,0.8h3.1v4.6c0.5-0.6,0.8-1.1,1-1.7l0.9,0.6
			c-0.5,1-1.2,1.8-1.9,2.5v2.3c0,0.7-0.3,1.1-1,1.1h-1.2l-0.3-1l1.1,0.1c0.2,0,0.3-0.1,0.3-0.3v-1.2l-0.6,0.4
			c-1.5,0.9-3.4,1.6-5.6,1.9l-0.5-0.9c2.7-0.5,4.7-1.2,6-2h-6.1v-1h1.3v-5.2h2.2c0.1-0.3,0.2-0.6,0.3-1L715.9,364z M717.7,366.6
			v-0.8h-4.4v0.8H717.7z M717.7,368.2v-0.8h-4.4v0.8H717.7z M717.7,370v-0.9h-4.4v0.9H717.7z M724.7,365.3c0.2-0.5,0.4-0.9,0.6-1.4
			l1,0.2c-0.2,0.4-0.3,0.8-0.5,1.2h5.5v1h-6c-0.4,0.8-0.9,1.6-1.4,2.2h2.5v-1.5h1.1v1.5h3.3v1h-3.3v1.4h4.1v1h-4.1v2.3h-1.1v-2.3
			H722v-1h4.3v-1.4h-3.5l-0.2-1c0.6-0.6,1.1-1.3,1.6-2.2h-2v-1H724.7z M734.2,365.8v8.3h-1v-8.3H734.2z M736.3,365.8l-0.9,0.5
			c-0.4-0.8-0.9-1.4-1.3-2l0.9-0.4C735.5,364.5,736,365.1,736.3,365.8z M739.8,366.9v5.3h-4.4v-5.3H739.8z M738.9,369.1v-1.3h-2.4
			v1.3H738.9z M738.9,370h-2.4v1.3h2.4V370z M740.1,374l-0.3-1l0.9,0c0.3,0,0.5-0.2,0.5-0.6v-7.1h-4.1v-1h5.2v8.3
			c0,0.8-0.4,1.3-1.2,1.3H740.1z"/>
		<g>
			<defs>
				<rect id="SVGID_29_" x="496" y="360" width="68" height="30"/>
			</defs>
			<clipPath id="SVGID_30_">
				<use xlink:href="#SVGID_29_"  style="overflow:visible;"/>
			</clipPath>
			<path class="st16" d="M499.5,364.3c0.2-0.5,0.4-0.9,0.6-1.4l1,0.2c-0.2,0.4-0.3,0.8-0.5,1.2h5.5v1h-6c-0.4,0.8-0.9,1.6-1.4,2.2
				h2.5v-1.5h1.1v1.5h3.3v1h-3.3v1.4h4.1v1h-4.1v2.3h-1.1v-2.3h-4.3v-1h4.3v-1.4h-3.5l-0.2-1c0.6-0.6,1.1-1.3,1.6-2.2h-2v-1H499.5z
				 M512.7,363c-0.1,0.3-0.2,0.6-0.3,0.8h3.1v4.6c0.5-0.6,0.8-1.1,1-1.7l0.9,0.6c-0.5,1-1.2,1.8-1.9,2.5v2.3c0,0.7-0.3,1.1-1,1.1
				h-1.2l-0.3-1l1.1,0.1c0.2,0,0.3-0.1,0.3-0.3v-1.2L514,371c-1.5,0.9-3.4,1.6-5.6,1.9l-0.5-0.9c2.7-0.5,4.7-1.2,6-2h-6.1v-1h1.3
				v-5.2h2.2c0.1-0.3,0.2-0.6,0.3-1L512.7,363z M514.5,365.6v-0.8h-4.4v0.8H514.5z M514.5,367.2v-0.8h-4.4v0.8H514.5z M514.5,369
				v-0.9h-4.4v0.9H514.5z M521.2,366.1c-0.5,2.2-1.2,3.8-2,5l-0.9-0.8c0.8-1.1,1.5-2.7,1.9-4.6L521.2,366.1z M521.3,373l-0.3-1.1
				c0.5,0,1,0.1,1.5,0.1c0.4,0,0.6-0.2,0.6-0.6v-8.2h1.1v8.5c0,0.9-0.5,1.4-1.3,1.4H521.3z M528.6,370.5l-0.9,0.6
				c-0.5-1.5-1.1-3.2-1.8-5.1l1-0.6C527.6,367.4,528.2,369,528.6,370.5z M532.5,364.3c0.2-0.5,0.4-0.9,0.6-1.4l1,0.2
				c-0.2,0.4-0.3,0.8-0.5,1.2h5.5v1h-6c-0.4,0.8-0.9,1.6-1.4,2.2h2.5v-1.5h1.1v1.5h3.3v1h-3.3v1.4h4.1v1h-4.1v2.3h-1.1v-2.3h-4.3v-1
				h4.3v-1.4h-3.5l-0.2-1c0.6-0.6,1.1-1.3,1.6-2.2h-2v-1H532.5z M545,370v-0.8h1v0.8h3.7v1h-3.7v1h4.3v1h-9.7v-1h4.4v-1h-3.8v-1H545
				z M546.2,363.4v0.9h-1v1.4h1.3v1h-1.3v2.3h-1v-2.3H543c-0.1,1.1-0.5,1.9-1.2,2.5l-0.8-0.7c0.5-0.4,0.9-1,1-1.8h-1.2v-1h1.3v-1.4
				h-1v-0.9H546.2z M543,365.7h1.2v-1.4H543V365.7z M548,363.7v3.8h-1v-3.8H548z M547.5,369.2l-0.2-1c0.5,0,0.9,0.1,1.4,0.1
				c0.2,0,0.3-0.2,0.3-0.5v-4.6h1v4.9c0,0.8-0.3,1.2-1,1.2H547.5z M554.5,364.3c0.2-0.5,0.4-0.9,0.6-1.4l1,0.2
				c-0.2,0.4-0.3,0.8-0.5,1.2h5.5v1h-6c-0.4,0.8-0.9,1.6-1.4,2.2h2.5v-1.5h1.1v1.5h3.3v1h-3.3v1.4h4.1v1h-4.1v2.3h-1.1v-2.3h-4.3v-1
				h4.3v-1.4h-3.5l-0.2-1c0.6-0.6,1.1-1.3,1.6-2.2h-2v-1H554.5z"/>
			<g class="st16">
				<text transform="matrix(1 0 0 1 496 388)" class="st7 st8">间4000m²</text>
			</g>
		</g>
		<g>
			<defs>
				<rect id="SVGID_31_" x="483" y="189" width="131" height="37"/>
			</defs>
			<clipPath id="SVGID_32_">
				<use xlink:href="#SVGID_31_"  style="overflow:visible;"/>
			</clipPath>
			<rect x="478" y="184" class="st17" width="141" height="47"/>
		</g>
		<g>
			<defs>
				<rect id="SVGID_33_" x="483" y="226" width="103" height="32"/>
			</defs>
			<clipPath id="SVGID_34_">
				<use xlink:href="#SVGID_33_"  style="overflow:visible;"/>
			</clipPath>
			<rect x="478" y="221" class="st18" width="113" height="42"/>
		</g>
		<g>
			<defs>
				<rect id="SVGID_35_" x="483" y="258" width="103" height="67"/>
			</defs>
			<clipPath id="SVGID_36_">
				<use xlink:href="#SVGID_35_"  style="overflow:visible;"/>
			</clipPath>
			<rect x="478" y="253" class="st19" width="113" height="77"/>
		</g>
		<path d="M525.9,241.8c0.1-0.6,0.1-1.2,0.1-1.8v-1h1.1v0.7c0,0.7,0,1.4-0.1,2.1h4.5v1h-4.2c0.8,2.4,2.3,4.2,4.4,5.5l-0.6,0.8
			c-2.1-1.3-3.6-3.1-4.4-5.4c-0.7,2.5-2.2,4.4-4.4,5.5l-0.7-0.9c2.3-1.1,3.7-2.9,4.3-5.5h-4v-1H525.9z M535,244.2
			c-0.5,1.6-1,3.2-1.6,4.6l-1-0.4c0.6-1.5,1.1-3,1.6-4.5L535,244.2z M534.9,241.9l-0.9,0.6c-0.4-0.8-0.9-1.7-1.5-2.6l0.9-0.6
			C534.1,240.3,534.6,241.1,534.9,241.9z M539.4,239v1.8h2.8v5.1h-1v-0.5h-1.7v3.6h-1.1v-3.6h-1.7v0.5h-1v-5.1h2.7V239H539.4z
			 M538.4,244.6v-2.7h-1.7v2.7H538.4z M541.2,244.6v-2.7h-1.7v2.7H541.2z M546.3,239.3c-0.5,1.3-1.1,2.4-1.6,3.2
			c0.4,0,0.8-0.1,1.2-0.1c0.2-0.4,0.4-0.8,0.6-1.2l0.9,0.4c-0.9,1.7-1.6,3-2.3,3.8c0.7-0.2,1.4-0.4,2.1-0.6v0.9
			c-1.2,0.4-2.3,0.7-3.4,0.8l-0.3-0.9c0.2-0.1,0.3-0.2,0.5-0.3c0.3-0.4,0.7-1,1.3-1.9c-0.5,0.1-1.1,0.1-1.6,0.2l-0.3-0.9
			c0.2-0.1,0.3-0.2,0.4-0.4c0.5-1,1-2.1,1.4-3.3L546.3,239.3z M547.4,247.8c-1.1,0.4-2.3,0.7-3.7,1l-0.1-1c1.5-0.2,2.7-0.6,3.8-1
			V247.8z M552.9,241.8l-2.8,0.4c0,0.4,0,0.8,0.1,1.2l2.8-0.4l0.2,1l-2.8,0.5l0,0.3c0.1,0.5,0.2,1,0.4,1.4c0.5-0.5,1-1,1.4-1.7
			l0.8,0.6c-0.6,0.8-1.1,1.5-1.8,2.1c0.3,0.5,0.6,0.8,0.9,0.8c0.3,0,0.5-0.5,0.6-1.6l0.9,0.6c-0.3,1.4-0.8,2.1-1.4,2.1
			c-0.6,0-1.1-0.4-1.6-1c-0.1-0.1-0.1-0.2-0.2-0.3c-0.8,0.6-1.6,1-2.5,1.3l-0.6-0.8c1-0.3,1.9-0.7,2.6-1.3c-0.2-0.5-0.4-1-0.5-1.5
			c-0.1-0.2-0.1-0.5-0.1-0.7l-1.9,0.3l-0.1-1l1.9-0.3c0-0.4-0.1-0.8-0.1-1.3l-1.5,0.2l-0.2-1l1.6-0.2V239h1v2.2l2.6-0.4L552.9,241.8
			z M552.6,240.2l-0.8,0.6c-0.3-0.4-0.7-0.9-1.2-1.4l0.8-0.5C551.9,239.4,552.3,239.9,552.6,240.2z"/>
		<path d="M519,290.2c-0.5,1.6-1,3.2-1.6,4.6l-1-0.4c0.6-1.5,1.1-3,1.6-4.5L519,290.2z M518.9,287.9l-0.9,0.6
			c-0.4-0.8-0.9-1.7-1.5-2.6l0.9-0.6C518.1,286.3,518.6,287.1,518.9,287.9z M523.4,285v1.8h2.8v5.1h-1v-0.5h-1.7v3.6h-1.1v-3.6h-1.7
			v0.5h-1v-5.1h2.7V285H523.4z M522.4,290.6v-2.7h-1.7v2.7H522.4z M525.2,290.6v-2.7h-1.7v2.7H525.2z M537.3,286.4h-7.9v2.6
			c0,2.6-0.4,4.7-1.2,6.2l-0.8-0.7c0.6-1.3,0.9-3.2,0.9-5.5v-3.6h9V286.4z M532.8,289.1V287h1v2.1h3.1v1h-3.1v3.6h3.7v1h-8.3v-1h3.5
			v-3.6h-2.9v-1H532.8z M536.8,292.8l-0.8,0.6c-0.4-0.7-0.8-1.5-1.4-2.3l0.8-0.5C536,291.4,536.4,292.2,536.8,292.8z M541.5,286.3
			c0.2-0.5,0.4-0.9,0.6-1.4l1,0.2c-0.2,0.4-0.3,0.8-0.5,1.2h5.5v1h-6c-0.4,0.8-0.9,1.6-1.4,2.2h2.5v-1.5h1.1v1.5h3.3v1h-3.3v1.4h4.1
			v1h-4.1v2.3h-1.1v-2.3h-4.3v-1h4.3v-1.4h-3.5l-0.2-1c0.6-0.6,1.1-1.3,1.6-2.2h-2v-1H541.5z M551,286.8v8.3h-1v-8.3H551z
			 M553.1,286.8l-0.9,0.5c-0.4-0.8-0.9-1.4-1.3-2l0.9-0.4C552.3,285.5,552.8,286.1,553.1,286.8z M556.6,287.9v5.3h-4.4v-5.3H556.6z
			 M555.7,290.1v-1.3h-2.4v1.3H555.7z M555.7,291h-2.4v1.3h2.4V291z M556.9,295l-0.3-1l0.9,0c0.3,0,0.5-0.2,0.5-0.6v-7.1h-4.1v-1
			h5.2v8.3c0,0.8-0.4,1.3-1.2,1.3H556.9z"/>
		<path class="st20" d="M526.9,205.8c0.1-0.6,0.1-1.2,0.1-1.8v-1h1.1v0.7c0,0.7,0,1.4-0.1,2.1h4.5v1h-4.2c0.8,2.4,2.3,4.2,4.4,5.5
			l-0.6,0.8c-2.1-1.3-3.6-3.1-4.4-5.4c-0.7,2.5-2.2,4.4-4.4,5.5l-0.7-0.9c2.3-1.1,3.7-2.9,4.3-5.5h-4v-1H526.9z M536,208.2
			c-0.5,1.6-1,3.2-1.6,4.6l-1-0.4c0.6-1.5,1.1-3,1.6-4.5L536,208.2z M535.9,205.9l-0.9,0.6c-0.4-0.8-0.9-1.7-1.5-2.6l0.9-0.6
			C535.1,204.3,535.6,205.1,535.9,205.9z M540.4,203v1.8h2.8v5.1h-1v-0.5h-1.7v3.6h-1.1v-3.6h-1.7v0.5h-1v-5.1h2.7V203H540.4z
			 M539.4,208.6v-2.7h-1.7v2.7H539.4z M542.2,208.6v-2.7h-1.7v2.7H542.2z M554.4,211v1h-9.9v-1H554.4z M553.4,204.1v1h-7.9v-1H553.4
			z M558.3,203.3c-0.5,1.3-1.1,2.4-1.6,3.2c0.4,0,0.8-0.1,1.2-0.1c0.2-0.4,0.4-0.8,0.6-1.2l0.9,0.4c-0.9,1.7-1.6,3-2.3,3.8
			c0.7-0.2,1.4-0.4,2.1-0.6v0.9c-1.2,0.4-2.3,0.7-3.4,0.8l-0.3-0.9c0.2-0.1,0.3-0.2,0.5-0.3c0.3-0.4,0.7-1,1.3-1.9
			c-0.5,0.1-1.1,0.1-1.6,0.2l-0.3-0.9c0.2-0.1,0.3-0.2,0.4-0.4c0.5-1,1-2.1,1.4-3.3L558.3,203.3z M559.4,211.8
			c-1.1,0.4-2.3,0.7-3.7,1l-0.1-1c1.5-0.2,2.7-0.6,3.8-1V211.8z M564.9,205.8l-2.8,0.4c0,0.4,0,0.8,0.1,1.2l2.8-0.4l0.2,1l-2.8,0.5
			l0,0.3c0.1,0.5,0.2,1,0.4,1.4c0.5-0.5,1-1,1.4-1.7l0.8,0.6c-0.6,0.8-1.1,1.5-1.8,2.1c0.3,0.5,0.6,0.8,0.9,0.8
			c0.3,0,0.5-0.5,0.6-1.6l0.9,0.6c-0.3,1.4-0.8,2.1-1.4,2.1c-0.6,0-1.1-0.4-1.6-1c-0.1-0.1-0.1-0.2-0.2-0.3c-0.8,0.6-1.6,1-2.5,1.3
			l-0.6-0.8c1-0.3,1.9-0.7,2.6-1.3c-0.2-0.5-0.4-1-0.5-1.5c-0.1-0.2-0.1-0.5-0.1-0.7l-1.9,0.3l-0.1-1l1.9-0.3c0-0.4-0.1-0.8-0.1-1.3
			l-1.5,0.2l-0.2-1l1.6-0.2V203h1v2.2l2.6-0.4L564.9,205.8z M564.6,204.2l-0.8,0.6c-0.3-0.4-0.7-0.9-1.2-1.4l0.8-0.5
			C563.9,203.4,564.3,203.9,564.6,204.2z"/>
		<g>
			<defs>
				<rect id="SVGID_37_" x="586" y="226" width="28" height="99"/>
			</defs>
			<clipPath id="SVGID_38_">
				<use xlink:href="#SVGID_37_"  style="overflow:visible;"/>
			</clipPath>
			<rect x="581" y="221" class="st21" width="38" height="109"/>
		</g>
		<g>
			<defs>
				<rect id="SVGID_39_" x="616" y="189" width="9" height="136"/>
			</defs>
			<clipPath id="SVGID_40_">
				<use xlink:href="#SVGID_39_"  style="overflow:visible;"/>
			</clipPath>
			<rect x="616" y="189" class="st22" width="9" height="136"/>
		</g>
		<g>
			<defs>
				<rect id="SVGID_41_" x="787" y="114" width="9" height="136"/>
			</defs>
			<clipPath id="SVGID_42_">
				<use xlink:href="#SVGID_41_"  style="overflow:visible;"/>
			</clipPath>
			<rect x="787" y="114" class="st23" width="9" height="136"/>
		</g>
		<g>
			<defs>
				<rect id="SVGID_43_" x="615" y="342" width="4" height="67"/>
			</defs>
			<clipPath id="SVGID_44_">
				<use xlink:href="#SVGID_43_"  style="overflow:visible;"/>
			</clipPath>
			<rect x="615" y="342" class="st24" width="4" height="67"/>
		</g>
		<g>
			<defs>
				<rect id="SVGID_45_" x="621" y="342" width="4" height="67"/>
			</defs>
			<clipPath id="SVGID_46_">
				<use xlink:href="#SVGID_45_"  style="overflow:visible;"/>
			</clipPath>
			<rect x="621" y="342" class="st25" width="4" height="67"/>
		</g>
		<g>
			<defs>
				<rect id="SVGID_47_" x="730" y="416" width="39" height="10"/>
			</defs>
			<clipPath id="SVGID_48_">
				<use xlink:href="#SVGID_47_"  style="overflow:visible;"/>
			</clipPath>
			<rect x="730" y="416" class="st26" width="39" height="10"/>
		</g>
		<g>
			<defs>
				<rect id="SVGID_49_" x="770" y="113" width="15" height="138"/>
			</defs>
			<clipPath id="SVGID_50_">
				<use xlink:href="#SVGID_49_"  style="overflow:visible;"/>
			</clipPath>
			<rect x="765" y="108" class="st27" width="25" height="148"/>
		</g>
		<g>
			<defs>
				<rect id="SVGID_51_" x="482" y="155" width="96" height="20"/>
			</defs>
			<clipPath id="SVGID_52_">
				<use xlink:href="#SVGID_51_"  style="overflow:visible;"/>
			</clipPath>
			<rect x="477" y="150" class="st28" width="106" height="30"/>
		</g>
		<g>
			<defs>
				<rect id="SVGID_53_" x="578" y="342" width="35" height="67"/>
			</defs>
			<clipPath id="SVGID_54_">
				<use xlink:href="#SVGID_53_"  style="overflow:visible;"/>
			</clipPath>
			<rect x="573" y="337" class="st29" width="45" height="77"/>
		</g>
		<g>
			<defs>
				<rect id="SVGID_55_" x="627" y="325" width="19" height="89"/>
			</defs>
			<clipPath id="SVGID_56_">
				<use xlink:href="#SVGID_55_"  style="overflow:visible;"/>
			</clipPath>
			<rect x="622" y="320" class="st30" width="29" height="99"/>
		</g>
		<path d="M598.5,253.3c0.2-0.5,0.4-0.9,0.6-1.4l1,0.2c-0.2,0.4-0.3,0.8-0.5,1.2h5.5v1h-6c-0.4,0.8-0.9,1.6-1.4,2.2h2.5v-1.5h1.1
			v1.5h3.3v1h-3.3v1.4h4.1v1h-4.1v2.3h-1.1v-2.3h-4.3v-1h4.3v-1.4h-3.5l-0.2-1c0.6-0.6,1.1-1.3,1.6-2.2h-2v-1H598.5z"/>
		<text transform="matrix(1 0 0 1 595 277)" class="st7 st8">身</text>
		<text transform="matrix(1 0 0 1 595 293)" class="st7 st8">库</text>
		<path d="M775.5,162.3c0.2-0.5,0.4-0.9,0.6-1.4l1,0.2c-0.2,0.4-0.3,0.8-0.5,1.2h5.5v1h-6c-0.4,0.8-0.9,1.6-1.4,2.2h2.5v-1.5h1.1
			v1.5h3.3v1h-3.3v1.4h4.1v1h-4.1v2.3h-1.1v-2.3h-4.3v-1h4.3v-1.4h-3.5l-0.2-1c0.6-0.6,1.1-1.3,1.6-2.2h-2v-1H775.5z"/>
		<text transform="matrix(1 0 0 1 772 186)" class="st7 st8">身</text>
		<text transform="matrix(1 0 0 1 772 202)" class="st7 st8">库</text>
		<path d="M516.5,161.3c0.2-0.5,0.4-0.9,0.6-1.4l1,0.2c-0.2,0.4-0.3,0.8-0.5,1.2h5.5v1h-6c-0.4,0.8-0.9,1.6-1.4,2.2h2.5v-1.5h1.1
			v1.5h3.3v1h-3.3v1.4h4.1v1h-4.1v2.3h-1.1v-2.3h-4.3v-1h4.3v-1.4h-3.5l-0.2-1c0.6-0.6,1.1-1.3,1.6-2.2h-2v-1H516.5z M529.7,160
			c-0.1,0.3-0.2,0.6-0.3,0.8h3.1v4.6c0.5-0.6,0.8-1.1,1-1.7l0.9,0.6c-0.5,1-1.2,1.8-1.9,2.5v2.3c0,0.7-0.3,1.1-1,1.1h-1.2l-0.3-1
			l1.1,0.1c0.2,0,0.3-0.1,0.3-0.3v-1.2L531,168c-1.5,0.9-3.4,1.6-5.6,1.9l-0.5-0.9c2.7-0.5,4.7-1.2,6-2h-6.1v-1h1.3v-5.2h2.2
			c0.1-0.3,0.2-0.6,0.3-1L529.7,160z M531.5,162.6v-0.8h-4.4v0.8H531.5z M531.5,164.2v-0.8h-4.4v0.8H531.5z M531.5,166v-0.9h-4.4
			v0.9H531.5z M541.5,160.9h3.9v1h-8.1v2.4c0,2.4-0.4,4.4-1.1,5.9l-0.9-0.8c0.6-1.2,0.9-2.9,0.9-5.1v-3.4h4
			c-0.2-0.3-0.3-0.5-0.5-0.8l1.2-0.2C541.2,160.2,541.4,160.5,541.5,160.9z M541,162.3c-0.1,0.3-0.2,0.5-0.2,0.7h4.1v0.9h-4.5
			c-0.3,0.6-0.6,1.2-0.9,1.7h1.7v-1.2h1v1.2h2.4v0.9h-2.4v1h3.2v0.9h-3.2v1.7h-1v-1.7h-3.9v-0.9h3.9v-1h-2.8l-0.2-0.9
			c0.4-0.5,0.7-1,1-1.7h-1.5V163h1.9c0.1-0.3,0.2-0.6,0.3-1L541,162.3z"/>
		<path d="M593.5,352.3c0.2-0.5,0.4-0.9,0.6-1.4l1,0.2c-0.2,0.4-0.3,0.8-0.5,1.2h5.5v1h-6c-0.4,0.8-0.9,1.6-1.4,2.2h2.5v-1.5h1.1
			v1.5h3.3v1h-3.3v1.4h4.1v1h-4.1v2.3h-1.1v-2.3h-4.3v-1h4.3v-1.4h-3.5l-0.2-1c0.6-0.6,1.1-1.3,1.6-2.2h-2v-1H593.5z"/>
		<text transform="matrix(1 0 0 1 590 376)" class="st7 st8">身</text>
		<text transform="matrix(1 0 0 1 590 392)" class="st7 st8">库</text>
		<path d="M634.5,346.3c0.2-0.5,0.4-0.9,0.6-1.4l1,0.2c-0.2,0.4-0.3,0.8-0.5,1.2h5.5v1h-6c-0.4,0.8-0.9,1.6-1.4,2.2h2.5v-1.5h1.1
			v1.5h3.3v1h-3.3v1.4h4.1v1h-4.1v2.3h-1.1v-2.3h-4.3v-1h4.3v-1.4h-3.5l-0.2-1c0.6-0.6,1.1-1.3,1.6-2.2h-2v-1H634.5z"/>
		<text transform="matrix(1 0 0 1 631 370)" class="st7 st8">身</text>
		<text transform="matrix(1 0 0 1 631 386)" class="st7 st8">库</text>
		<g>
			<defs>
				<rect id="SVGID_57_" x="246" y="143" width="46" height="20"/>
			</defs>
			<clipPath id="SVGID_58_">
				<use xlink:href="#SVGID_57_"  style="overflow:visible;"/>
			</clipPath>
			<rect x="241" y="138" class="st31" width="56" height="30"/>
		</g>
		<g>
			<defs>
				<rect id="SVGID_59_" x="201" y="150" width="32" height="20"/>
			</defs>
			<clipPath id="SVGID_60_">
				<use xlink:href="#SVGID_59_"  style="overflow:visible;"/>
			</clipPath>
			<rect x="196" y="145" class="st32" width="42" height="30"/>
		</g>
		<text transform="matrix(1 0 0 1 253 156)" class="st7 st8">新能源</text>
		<text transform="matrix(1 0 0 1 205 165)" class="st7 st8">油床</text>
		<g>
			<defs>
				<rect id="SVGID_61_" x="48" y="46" width="46" height="20"/>
			</defs>
			<clipPath id="SVGID_62_">
				<use xlink:href="#SVGID_61_"  style="overflow:visible;"/>
			</clipPath>
			<rect x="43" y="41" class="st33" width="56" height="30"/>
		</g>
		<g>
			<defs>
				<rect id="SVGID_63_" x="12" y="26" width="35" height="20"/>
			</defs>
			<clipPath id="SVGID_64_">
				<use xlink:href="#SVGID_63_"  style="overflow:visible;"/>
			</clipPath>
			<rect x="7" y="21" class="st34" width="45" height="30"/>
		</g>
		<g>
			<defs>
				<rect id="SVGID_65_" x="12" y="46" width="35" height="20"/>
			</defs>
			<clipPath id="SVGID_66_">
				<use xlink:href="#SVGID_65_"  style="overflow:visible;"/>
			</clipPath>
			<rect x="7" y="41" class="st35" width="45" height="30"/>
		</g>
		<g>
			<defs>
				<rect id="SVGID_67_" x="13" y="86" width="22" height="37"/>
			</defs>
			<clipPath id="SVGID_68_">
				<use xlink:href="#SVGID_67_"  style="overflow:visible;"/>
			</clipPath>
			<rect x="8" y="81" class="st36" width="32" height="47"/>
		</g>
		<g>
			<defs>
				<rect id="SVGID_69_" x="12" y="148" width="25" height="64"/>
			</defs>
			<clipPath id="SVGID_70_">
				<use xlink:href="#SVGID_69_"  style="overflow:visible;"/>
			</clipPath>
			<rect x="7" y="143" class="st37" width="35" height="74"/>
		</g>
		<g>
			<defs>
				<rect id="SVGID_71_" x="12" y="231" width="25" height="37"/>
			</defs>
			<clipPath id="SVGID_72_">
				<use xlink:href="#SVGID_71_"  style="overflow:visible;"/>
			</clipPath>
			<rect x="7" y="226" class="st38" width="35" height="47"/>
		</g>
		<g>
			<defs>
				<rect id="SVGID_73_" x="12" y="270" width="31" height="30"/>
			</defs>
			<clipPath id="SVGID_74_">
				<use xlink:href="#SVGID_73_"  style="overflow:visible;"/>
			</clipPath>
			<rect x="7" y="265" class="st39" width="41" height="40"/>
		</g>
		<g>
			<defs>
				<rect id="SVGID_75_" x="12" y="301" width="31" height="53"/>
			</defs>
			<clipPath id="SVGID_76_">
				<use xlink:href="#SVGID_75_"  style="overflow:visible;"/>
			</clipPath>
			<rect x="7" y="296" class="st40" width="41" height="63"/>
		</g>
		<g>
			<defs>
				<rect id="SVGID_77_" x="45" y="348" width="46" height="16"/>
			</defs>
			<clipPath id="SVGID_78_">
				<use xlink:href="#SVGID_77_"  style="overflow:visible;"/>
			</clipPath>
			<rect x="40" y="343" class="st41" width="56" height="26"/>
		</g>
		<g>
			<defs>
				<rect id="SVGID_79_" x="99" y="351" width="55" height="16"/>
			</defs>
			<clipPath id="SVGID_80_">
				<use xlink:href="#SVGID_79_"  style="overflow:visible;"/>
			</clipPath>
			<rect x="94" y="346" class="st42" width="65" height="26"/>
		</g>
		<g>
			<defs>
				<rect id="SVGID_81_" x="159" y="351" width="39" height="16"/>
			</defs>
			<clipPath id="SVGID_82_">
				<use xlink:href="#SVGID_81_"  style="overflow:visible;"/>
			</clipPath>
			<rect x="154" y="346" class="st43" width="49" height="26"/>
		</g>
		<g>
			<defs>
				<rect id="SVGID_83_" x="199" y="351" width="39" height="16"/>
			</defs>
			<clipPath id="SVGID_84_">
				<use xlink:href="#SVGID_83_"  style="overflow:visible;"/>
			</clipPath>
			<rect x="194" y="346" class="st44" width="49" height="26"/>
		</g>
		<g>
			<defs>
				<rect id="SVGID_85_" x="253" y="354" width="39" height="32"/>
			</defs>
			<clipPath id="SVGID_86_">
				<use xlink:href="#SVGID_85_"  style="overflow:visible;"/>
			</clipPath>
			<rect x="248" y="349" class="st45" width="49" height="42"/>
		</g>
		<g>
			<defs>
				<rect id="SVGID_87_" x="295" y="354" width="72" height="32"/>
			</defs>
			<clipPath id="SVGID_88_">
				<use xlink:href="#SVGID_87_"  style="overflow:visible;"/>
			</clipPath>
			<rect x="290" y="349" class="st46" width="82" height="42"/>
		</g>
		<g>
			<defs>
				<rect id="SVGID_89_" x="377" y="354" width="72" height="32"/>
			</defs>
			<clipPath id="SVGID_90_">
				<use xlink:href="#SVGID_89_"  style="overflow:visible;"/>
			</clipPath>
			<rect x="372" y="349" class="st47" width="82" height="42"/>
		</g>
		<g>
			<defs>
				<rect id="SVGID_91_" x="10" y="124" width="28" height="23"/>
			</defs>
			<clipPath id="SVGID_92_">
				<use xlink:href="#SVGID_91_"  style="overflow:visible;"/>
			</clipPath>
			<rect x="5" y="119" class="st48" width="38" height="33"/>
		</g>
		<text transform="matrix(1 0 0 1 55 60)" class="st7 st8">冷冻站</text>
		<path d="M17.7,34.8c0.1-0.7,0.2-1.5,0.3-2.3h-3.9v-1h8.8v1h-3.8c-0.1,0.8-0.1,1.6-0.3,2.3h4.4v1h-3.9c0.8,2,2.2,3.5,4.3,4.6
			l-0.6,0.8c-2.1-1.2-3.6-2.8-4.4-4.9c-0.2,0.6-0.4,1.1-0.6,1.6c-0.7,1.3-2,2.4-3.8,3.4l-0.7-0.9c1.6-0.8,2.8-1.8,3.4-3
			c0.3-0.4,0.5-1,0.6-1.6h-3.7v-1H17.7z M32,31v1.5c0,0.3,0,0.5,0,0.7h2.3v1h-2c0.3,1.2,1.1,2.2,2.4,2.9l-0.6,0.9
			c-1.2-0.8-2-1.7-2.4-2.9c-0.1,0.4-0.2,0.7-0.4,1c-0.5,0.8-1.2,1.5-2.3,1.9l-0.5-0.8c1-0.5,1.7-1.1,2.1-1.8
			c0.2-0.4,0.3-0.8,0.4-1.2h-1.3v-0.8c-0.8,2.1-2.2,3.7-4.3,4.7l-0.5-0.9c0.8-0.3,1.6-0.8,2.1-1.4c-0.5-0.3-0.9-0.5-1.3-0.7
			c-0.2,0.2-0.3,0.3-0.5,0.5l-0.6-0.8c1.2-1.1,2-2.4,2.5-3.9l1,0.1c-0.1,0.2-0.1,0.4-0.2,0.5h2.2v0.9c-0.1,0.3-0.1,0.5-0.2,0.8H31
			c0-0.3,0-0.5,0-0.7V31H32z M26.8,38.5c-0.2,1-0.6,2-0.9,2.8l-1-0.4c0.4-0.7,0.7-1.6,1-2.6L26.8,38.5z M26.1,34.6
			c0.5,0.2,1,0.4,1.4,0.7c0.2-0.3,0.4-0.5,0.5-0.8c-0.5-0.2-0.9-0.5-1.4-0.6C26.4,34.1,26.2,34.3,26.1,34.6z M28.8,32.5h-1.5
			c-0.1,0.2-0.2,0.4-0.3,0.6c0.5,0.2,0.9,0.3,1.4,0.6C28.6,33.3,28.7,32.9,28.8,32.5z M29.1,40.9l-1,0.2c-0.1-1-0.2-1.8-0.3-2.6
			l1-0.2C28.9,39.1,29,40,29.1,40.9z M31.7,40.9l-1,0.3c-0.2-1-0.4-1.9-0.6-2.7l1-0.2C31.3,39.1,31.5,39.9,31.7,40.9z M34.5,40.6
			l-0.9,0.5c-0.4-1-0.8-1.9-1.3-2.7l0.9-0.4C33.6,38.8,34,39.7,34.5,40.6z M34.2,32.5l-0.8,0.5c-0.3-0.5-0.6-1-1.1-1.5l0.7-0.5
			C33.6,31.6,34,32.1,34.2,32.5z M36.1,35.3l-0.7-0.8c0.9-0.9,1.6-2,2.2-3.6l1.1,0.2c-0.1,0.3-0.2,0.5-0.3,0.8h6.2v1h-6.8
			C37.4,33.8,36.8,34.6,36.1,35.3z M43,40.3c-0.3-0.6-0.4-1.7-0.4-3.3v-0.6h-6.1v-1h7.1V37c0,1.3,0.1,2.1,0.2,2.5
			c0.1,0.4,0.3,0.5,0.5,0.5c0.1,0,0.2-0.2,0.3-0.6c0.1-0.3,0.2-0.7,0.2-1.1l0.9,0.4c-0.2,1-0.4,1.6-0.6,2c-0.2,0.3-0.5,0.5-0.7,0.5
			C43.7,41.1,43.3,40.8,43,40.3z M44.1,33.7v1h-6.5v-1H44.1z"/>
		<path d="M17.7,54.8c0.1-0.7,0.2-1.5,0.3-2.3h-3.9v-1h8.8v1h-3.8c-0.1,0.8-0.1,1.6-0.3,2.3h4.4v1h-3.9c0.8,2,2.2,3.5,4.3,4.6
			l-0.6,0.8c-2.1-1.2-3.6-2.8-4.4-4.9c-0.2,0.6-0.4,1.1-0.6,1.6c-0.7,1.3-2,2.4-3.8,3.4l-0.7-0.9c1.6-0.8,2.8-1.8,3.4-3
			c0.3-0.4,0.5-1,0.6-1.6h-3.7v-1H17.7z M32,51v1.5c0,0.3,0,0.5,0,0.7h2.3v1h-2c0.3,1.2,1.1,2.2,2.4,2.9l-0.6,0.9
			c-1.2-0.8-2-1.7-2.4-2.9c-0.1,0.4-0.2,0.7-0.4,1c-0.5,0.8-1.2,1.5-2.3,1.9l-0.5-0.8c1-0.5,1.7-1.1,2.1-1.8
			c0.2-0.4,0.3-0.8,0.4-1.2h-1.3v-0.8c-0.8,2.1-2.2,3.7-4.3,4.7l-0.5-0.9c0.8-0.3,1.6-0.8,2.1-1.4c-0.5-0.3-0.9-0.5-1.3-0.7
			c-0.2,0.2-0.3,0.3-0.5,0.5l-0.6-0.8c1.2-1.1,2-2.4,2.5-3.9l1,0.1c-0.1,0.2-0.1,0.4-0.2,0.5h2.2v0.9c-0.1,0.3-0.1,0.5-0.2,0.8H31
			c0-0.3,0-0.5,0-0.7V51H32z M26.8,58.5c-0.2,1-0.6,2-0.9,2.8l-1-0.4c0.4-0.7,0.7-1.6,1-2.6L26.8,58.5z M26.1,54.6
			c0.5,0.2,1,0.4,1.4,0.7c0.2-0.3,0.4-0.5,0.5-0.8c-0.5-0.2-0.9-0.5-1.4-0.6C26.4,54.1,26.2,54.3,26.1,54.6z M28.8,52.5h-1.5
			c-0.1,0.2-0.2,0.4-0.3,0.6c0.5,0.2,0.9,0.3,1.4,0.6C28.6,53.3,28.7,52.9,28.8,52.5z M29.1,60.9l-1,0.2c-0.1-1-0.2-1.8-0.3-2.6
			l1-0.2C28.9,59.1,29,60,29.1,60.9z M31.7,60.9l-1,0.3c-0.2-1-0.4-1.9-0.6-2.7l1-0.2C31.3,59.1,31.5,59.9,31.7,60.9z M34.5,60.6
			l-0.9,0.5c-0.4-1-0.8-1.9-1.3-2.7l0.9-0.4C33.6,58.8,34,59.7,34.5,60.6z M34.2,52.5l-0.8,0.5c-0.3-0.5-0.6-1-1.1-1.5l0.7-0.5
			C33.6,51.6,34,52.1,34.2,52.5z M36.1,55.3l-0.7-0.8c0.9-0.9,1.6-2,2.2-3.6l1.1,0.2c-0.1,0.3-0.2,0.5-0.3,0.8h6.2v1h-6.8
			C37.4,53.8,36.8,54.6,36.1,55.3z M43,60.3c-0.3-0.6-0.4-1.7-0.4-3.3v-0.6h-6.1v-1h7.1V57c0,1.3,0.1,2.1,0.2,2.5
			c0.1,0.4,0.3,0.5,0.5,0.5c0.1,0,0.2-0.2,0.3-0.6c0.1-0.3,0.2-0.7,0.2-1.1l0.9,0.4c-0.2,1-0.4,1.6-0.6,2c-0.2,0.3-0.5,0.5-0.7,0.5
			C43.7,61.1,43.3,60.8,43,60.3z M44.1,53.7v1h-6.5v-1H44.1z"/>
		<text transform="matrix(1 0 0 1 18 100)" class="st7 st8">蒸</text>
		<text transform="matrix(1 0 0 1 18 116)" class="st7 st8">汽</text>
		<text transform="matrix(1 0 0 1 19 174)" class="st7 st8">库</text>
		<text transform="matrix(1 0 0 1 19 190)" class="st7 st8">房</text>
		<text transform="matrix(1 0 0 1 19 245)" class="st7 st8">消</text>
		<text transform="matrix(1 0 0 1 19 261)" class="st7 st8">防</text>
		<path d="M19,284.3l-0.7,0.7c-0.4-0.5-1.1-1-1.9-1.6l0.7-0.7C17.9,283.3,18.5,283.8,19,284.3z M19.1,286.1c-0.5,1.4-1,2.7-1.5,4
			l-1-0.4c0.6-1.3,1.1-2.6,1.6-3.9L19.1,286.1z M19.3,281.7l-0.7,0.7c-0.5-0.5-1.1-1-1.9-1.6l0.7-0.7
			C18.2,280.6,18.8,281.2,19.3,281.7z M26.4,282.8v1H22c-0.1,0.6-0.2,1-0.3,1.5h4c0,2.5-0.2,3.9-0.6,4.2c-0.3,0.3-1,0.5-2.1,0.5
			h-0.7l-0.3-1c0.4,0,0.8,0,1.1,0c0.6,0,1-0.1,1.2-0.2c0.2-0.2,0.3-1,0.4-2.5h-4.2c0.2-0.9,0.4-1.7,0.5-2.4h-1.6v-1H26.4z
			 M25.9,280.4v1H20v-1H25.9z M31.4,282.7v0.8c-0.5,2.4-1.6,4.3-3.3,5.5l-0.7-0.9c1.4-1.1,2.4-2.6,2.9-4.5h-2.6v-1H31.4z M37,282.3
			c-0.8,1-1.7,1.9-2.6,2.6c0.8,1.3,1.9,2.5,3.3,3.3l-0.7,1c-1.8-1.4-3.1-3-3.9-4.8v4.5c0,0.8-0.4,1.2-1.1,1.2h-1.5l-0.2-1
			c0.5,0,0.9,0.1,1.3,0.1c0.3,0,0.4-0.2,0.4-0.5V280h1.1v2.3c0.2,0.7,0.5,1.3,0.8,1.9c0.8-0.7,1.6-1.5,2.2-2.4L37,282.3z"/>
		<path d="M19,324.3l-0.7,0.7c-0.4-0.5-1.1-1-1.9-1.6l0.7-0.7C17.9,323.3,18.5,323.8,19,324.3z M19.1,326.1c-0.5,1.4-1,2.7-1.5,4
			l-1-0.4c0.6-1.3,1.1-2.6,1.6-3.9L19.1,326.1z M19.3,321.7l-0.7,0.7c-0.5-0.5-1.1-1-1.9-1.6l0.7-0.7
			C18.2,320.6,18.8,321.2,19.3,321.7z M26.4,322.8v1H22c-0.1,0.6-0.2,1-0.3,1.5h4c0,2.5-0.2,3.9-0.6,4.2c-0.3,0.3-1,0.5-2.1,0.5
			h-0.7l-0.3-1c0.4,0,0.8,0,1.1,0c0.6,0,1-0.1,1.2-0.2c0.2-0.2,0.3-1,0.4-2.5h-4.2c0.2-0.9,0.4-1.7,0.5-2.4h-1.6v-1H26.4z
			 M25.9,320.4v1H20v-1H25.9z M31.4,322.7v0.8c-0.5,2.4-1.6,4.3-3.3,5.5l-0.7-0.9c1.4-1.1,2.4-2.6,2.9-4.5h-2.6v-1H31.4z M37,322.3
			c-0.8,1-1.7,1.9-2.6,2.6c0.8,1.3,1.9,2.5,3.3,3.3l-0.7,1c-1.8-1.4-3.1-3-3.9-4.8v4.5c0,0.8-0.4,1.2-1.1,1.2h-1.5l-0.2-1
			c0.5,0,0.9,0.1,1.3,0.1c0.3,0,0.4-0.2,0.4-0.5V320h1.1v2.3c0.2,0.7,0.5,1.3,0.8,1.9c0.8-0.7,1.6-1.5,2.2-2.4L37,322.3z"/>
		<text transform="matrix(1 0 0 1 51 360)" class="st7 st8">应急池</text>
		<text transform="matrix(1 0 0 1 104 363)" class="st7 st8">地源热泵</text>
		<text transform="matrix(1 0 0 1 162 363)" class="st7 st8">空压站</text>
		<text transform="matrix(1 0 0 1 202 363)" class="st7 st8">空压站</text>
		<text transform="matrix(1 0 0 1 262 374)" class="st7 st8">变电</text>
		<path d="M317.5,365.4c-0.2,0.8-0.5,1.6-0.9,2.3v7.5h-1v-5.8c-0.3,0.4-0.6,0.7-0.9,1.1l-0.4-1.1c1-1.3,1.7-2.8,2.2-4.4L317.5,365.4
			z M324.3,371.9h-0.6v0.6h-2.3v1.6c0,0.7-0.4,1-1.1,1H319l-0.2-1c0.4,0,0.7,0.1,1.1,0.1c0.3,0,0.4-0.1,0.4-0.3v-1.3H318v-0.6h-0.8
			v-2h7.1V371.9z M321.2,365.8h3.1v0.9h-6.8v-0.9h2.7c-0.1-0.3-0.2-0.5-0.3-0.7l1.1-0.2C321,365.2,321.1,365.5,321.2,365.8z
			 M323.4,367.2v2.2H318v-2.2H323.4z M323.3,371.6v-0.8h-5v0.8H323.3z M322.4,368h-3.3v0.6h3.3V368z M328.5,366.3
			c0.2-0.5,0.4-0.9,0.6-1.4l1,0.2c-0.2,0.4-0.3,0.8-0.5,1.2h5.5v1h-6c-0.4,0.8-0.9,1.6-1.4,2.2h2.5v-1.5h1.1v1.5h3.3v1h-3.3v1.4h4.1
			v1h-4.1v2.3h-1.1v-2.3h-4.3v-1h4.3v-1.4h-3.5l-0.2-1c0.6-0.6,1.1-1.3,1.6-2.2h-2v-1H328.5z M337.8,367.9v-2.7h1.1v2.7h1.3v1h-1.3
			v3.6c0.4-0.1,0.9-0.3,1.3-0.5v1.1c-1.1,0.4-2.2,0.7-3.4,1l-0.3-1.1c0.5-0.1,0.9-0.2,1.4-0.3v-3.8h-1.2v-1H337.8z M340.5,369.7v-1
			c1.2-0.7,2.4-1.4,3.4-2.2h-3.3v-1h4.8v0.9c-1,0.8-2,1.6-3.2,2.3h4c-0.1,2.7-0.2,4.3-0.4,5.1s-0.7,1.1-1.6,1.1c-0.4,0-0.7,0-1.1,0
			l-0.3-1c0.4,0,0.8,0.1,1.2,0.1c0.4,0,0.6-0.2,0.8-0.5c0.1-0.3,0.2-1.6,0.3-3.8h-0.6c-0.3,1.3-0.6,2.3-1.2,3.1
			c-0.6,0.8-1.4,1.6-2.6,2.2l-0.6-0.8c1-0.6,1.8-1.2,2.3-1.9c0.5-0.6,0.8-1.5,1-2.6H343c-0.4,1.4-1.1,2.5-2.1,3.2l-0.6-0.8
			c0.8-0.6,1.4-1.4,1.7-2.4H340.5z"/>
		<path d="M385.7,366.5v-1h3.9v1h-1.7c-0.2,0.8-0.4,1.6-0.6,2.3h2v5.2h-1.9v0.8h-1v-4.2c-0.2,0.3-0.4,0.6-0.6,0.8l-0.6-0.9
			c0.8-1.2,1.3-2.5,1.6-4H385.7z M388.3,373v-3.4h-0.9v3.4H388.3z M391.9,370.2c-0.1,2.2-0.7,3.9-1.9,4.9l-0.8-0.7
			c1-0.9,1.6-2.3,1.7-4.2h-1.1v-1h1.1v-2.8H390v-1h5.3v1h-0.9v2.8h1.2v1h-1.2v4.9h-1v-4.9H391.9z M391.9,366.4v2.8h1.5v-2.8H391.9z
			 M398,365.3l1,0.2l-0.6,2h1.6c0.2-0.8,0.4-1.7,0.5-2.6l1.1,0.1c-0.1,0.9-0.3,1.7-0.5,2.4h5v1h-5.3c-0.1,0.4-0.2,0.7-0.3,1h4.4v0.9
			c-0.3,0.9-0.8,1.7-1.6,2.4c0.8,0.5,1.8,0.9,3,1.3l-0.5,1c-1.3-0.5-2.5-1-3.4-1.6c-0.9,0.6-1.9,1.2-3.2,1.7l-0.6-1
			c1.1-0.4,2-0.8,2.8-1.3c-0.7-0.6-1.3-1.2-1.6-1.8c-0.8,1.6-1.8,2.9-3,3.9l-0.5-1c1.5-1.3,2.7-3.2,3.4-5.5h-2.7L398,365.3z
			 M402.4,372.3c0.7-0.6,1.2-1.2,1.5-1.8h-3.2C401.1,371.1,401.6,371.7,402.4,372.3z M405.4,366.7l-0.7,0.7
			c-0.4-0.6-1.1-1.2-1.9-1.8l0.7-0.7C404.3,365.5,404.9,366.1,405.4,366.7z M410,375.1h-1v-5.2c-0.3,1-0.7,1.8-1.2,2.6l-0.5-1.2
			c0.7-1,1.3-2.1,1.6-3.3h-1.3v-1h1.4V365h1v2.1h1.2v1H410v0.6c0.4,0.5,0.8,1,1.3,1.5l-0.6,0.8c-0.3-0.5-0.5-0.9-0.7-1.2V375.1z
			 M414.9,368v2h-1v-2c-0.6,1-1.4,1.7-2.2,2.2l-0.6-0.8c0.7-0.4,1.3-0.8,1.9-1.4h-1.5v-1h2.4v-2h1v2h2.4v1h-1.5
			c0.4,0.5,1.1,1,1.9,1.4l-0.6,0.8C416,369.5,415.3,368.8,414.9,368L414.9,368z M414.4,370.1c-0.1,0.2-0.2,0.4-0.3,0.6h3.4v0.9h-1.1
			c-0.2,0.7-0.4,1.2-0.9,1.7c0.7,0.3,1.4,0.6,2.1,1l-0.6,0.8c-0.6-0.4-1.4-0.7-2.3-1.1c-0.7,0.5-1.8,0.8-3.3,1.1l-0.4-0.9
			c1.1-0.2,1.9-0.4,2.6-0.7c-0.6-0.2-1.1-0.5-1.7-0.7c0.3-0.4,0.5-0.8,0.7-1.2h-1.5v-0.9h1.9c0.1-0.3,0.2-0.5,0.3-0.7L414.4,370.1z
			 M413.4,366.5l-0.9,0.4c-0.2-0.6-0.5-1.1-0.8-1.6l0.9-0.3C412.9,365.5,413.2,366,413.4,366.5z M413.6,371.7
			c-0.2,0.3-0.3,0.5-0.5,0.8c0.5,0.2,1,0.3,1.5,0.5c0.4-0.4,0.7-0.8,0.9-1.3H413.6z M417,365.4c-0.2,0.5-0.5,1-0.9,1.5l-0.8-0.4
			c0.4-0.5,0.6-1,0.8-1.5L417,365.4z M420.5,367.5c0.3-0.4,0.6-0.8,0.9-1.2h-2.6v-1h3.8v0.8c-0.4,0.8-0.9,1.5-1.4,2
			c0.2,0.2,0.3,0.4,0.4,0.5h1.3v0.6c-0.2,0.9-0.4,1.5-0.6,2l-0.9-0.3c0.2-0.4,0.4-0.8,0.5-1.4h-0.9v4.4c0,0.7-0.3,1-0.9,1h-1.1
			l-0.2-0.9c0.3,0,0.6,0.1,0.9,0.1c0.2,0,0.3-0.1,0.3-0.4v-4.1h-1.5v-1h1.9c-0.4-0.5-0.9-1-1.4-1.5l0.8-0.5
			C420,367,420.3,367.3,420.5,367.5z M426.3,368.8v1.9c0,1.2-0.3,2.1-0.8,2.8c-0.5,0.7-1.3,1.2-2.4,1.5l-0.6-0.9
			c1-0.3,1.7-0.8,2.1-1.3c0.4-0.6,0.6-1.3,0.6-2.2v-1.9H426.3z M428.5,365.4v1h-2.2c0,0.4-0.1,0.7-0.2,1h2v5.3h-1v-4.4h-2.9v4.4h-1
			v-5.3h1.8c0.1-0.3,0.1-0.7,0.2-1H423v-1H428.5z M428.6,374.4l-0.7,0.7c-0.5-0.6-1.1-1.2-1.9-1.9l0.7-0.6
			C427.5,373.2,428.1,373.8,428.6,374.4z M434.4,369.5l-1,0.4c-0.1-0.3-0.2-0.6-0.3-0.9c-0.8,0.3-1.9,0.7-3.1,1l-0.4-1
			c0.2-0.2,0.4-0.4,0.4-0.7v-2.5c1.4-0.1,2.6-0.4,3.6-0.9l0.5,0.9c-0.8,0.4-1.8,0.7-3.1,0.9v2.1c0.7-0.2,1.3-0.4,1.8-0.6
			c-0.1-0.4-0.3-0.8-0.5-1.2l1-0.3C433.8,367.7,434.2,368.7,434.4,369.5z M438.5,375.1h-1v-0.4h-5.9v0.4h-1v-5h7.9V375.1z M434,372
			v-0.9h-2.5v0.9H434z M434,373.7v-0.9h-2.5v0.9H434z M434.5,366.4v-1h4.5c0,1.9-0.1,3-0.3,3.5c-0.2,0.6-0.6,0.9-1.3,0.9
			c-0.2,0-0.5,0-0.8,0l-0.3-0.9c0.4,0,0.7,0.1,1,0.1c0.3,0,0.5-0.2,0.6-0.6c0.1-0.3,0.1-0.9,0.1-1.9h-1.4c-0.1,0.8-0.2,1.4-0.4,1.8
			c-0.2,0.6-0.6,1.1-1.1,1.6l-0.6-0.8c0.3-0.4,0.6-0.8,0.8-1.3c0.1-0.4,0.2-0.8,0.3-1.4H434.5z M435.1,372h2.4v-0.9h-2.4V372z
			 M437.5,373.7v-0.9h-2.4v0.9H437.5z"/>
		<g>
			<defs>
				<rect id="SVGID_93_" x="13" y="127" width="25" height="13"/>
			</defs>
			<clipPath id="SVGID_94_">
				<use xlink:href="#SVGID_93_"  style="overflow:visible;"/>
			</clipPath>
			<g class="st49">
				<text transform="matrix(1 0 0 1 13 139)" class="st7 st8">固废</text>
			</g>
		</g>
		<g>
			<defs>
				<rect id="SVGID_95_" x="470" y="114" width="14" height="61"/>
			</defs>
			<clipPath id="SVGID_96_">
				<use xlink:href="#SVGID_95_"  style="overflow:visible;"/>
			</clipPath>
			<rect x="465" y="109" class="st50" width="24" height="71"/>
		</g>
		<g>
			<defs>
				<rect id="SVGID_97_" x="479" y="32" width="14" height="67"/>
			</defs>
			<clipPath id="SVGID_98_">
				<use xlink:href="#SVGID_97_"  style="overflow:visible;"/>
			</clipPath>
			<rect x="474" y="27" class="st51" width="24" height="77"/>
		</g>
		<text transform="matrix(1 0 0 1 471 140)" class="st7 st8">辅</text>
		<text transform="matrix(1 0 0 1 471 156)" class="st7 st8">房</text>
		<text transform="matrix(1 0 0 1 480 63)" class="st7 st8">辅</text>
		<text transform="matrix(1 0 0 1 480 79)" class="st7 st8">房</text>
		<g>
			<defs>
				<rect id="SVGID_99_" x="439" y="191" width="14" height="121"/>
			</defs>
			<clipPath id="SVGID_100_">
				<use xlink:href="#SVGID_99_"  style="overflow:visible;"/>
			</clipPath>
			<rect x="434" y="186" class="st52" width="24" height="131"/>
		</g>
		<text transform="matrix(1 0 0 1 441 225)" class="st7 st8">办</text>
		<text transform="matrix(1 0 0 1 441 241)" class="st7 st8">公</text>
		<text transform="matrix(1 0 0 1 441 257)" class="st7 st8">室</text>
		<text transform="matrix(1 0 0 1 441 273)" class="st7 st8">辅</text>
		<text transform="matrix(1 0 0 1 441 289)" class="st7 st8">房</text>
		<g>
			<defs>
				<rect id="SVGID_101_" x="334" y="325" width="78" height="16"/>
			</defs>
			<clipPath id="SVGID_102_">
				<use xlink:href="#SVGID_101_"  style="overflow:visible;"/>
			</clipPath>
			<rect x="329" y="320" class="st53" width="88" height="26"/>
		</g>
		<text transform="matrix(1 0 0 1 362 337)" class="st7 st8">辅房</text>
		<g>
			<defs>
				<rect id="SVGID_103_" x="117" y="325" width="46" height="16"/>
			</defs>
			<clipPath id="SVGID_104_">
				<use xlink:href="#SVGID_103_"  style="overflow:visible;"/>
			</clipPath>
			<rect x="112" y="320" class="st54" width="56" height="26"/>
		</g>
		<text transform="matrix(1 0 0 1 128 337)" class="st7 st8">辅房</text>
		<g>
			<defs>
				<rect id="SVGID_105_" x="774" y="41" width="44" height="48"/>
			</defs>
			<clipPath id="SVGID_106_">
				<use xlink:href="#SVGID_105_"  style="overflow:visible;"/>
			</clipPath>
			<rect x="769" y="36" class="st55" width="54" height="58"/>
		</g>
		<text transform="matrix(1 0 0 1 779 69)" class="st7 st8">冷冻站</text>
		<g>
			<defs>
				<polygon id="SVGID_107_" points="-1,8 825.1,17.8 797,461 -1,372 				"/>
			</defs>
			<clipPath id="SVGID_108_">
				<use xlink:href="#SVGID_107_"  style="overflow:visible;"/>
			</clipPath>
			<polygon class="st56" points="-1,8 825.1,17.8 797,461 -1,372 			"/>
		</g>
		<g>
			<defs>
				<rect id="SVGID_109_" x="843.3" y="66" width="162" height="64"/>
			</defs>
			<clipPath id="SVGID_110_">
				<use xlink:href="#SVGID_109_"  style="overflow:visible;"/>
			</clipPath>
			<rect x="838.3" y="61" class="st57" width="172" height="74"/>
		</g>
		<path class="st20" d="M865,95l-0.2-1c0.3,0,0.6,0.1,0.9,0.1c0.3,0,0.5-0.1,0.5-0.3v-2.4c-0.4,0.1-0.7,0.3-1.1,0.4l-0.3-1.1
			c0.4-0.1,0.9-0.2,1.3-0.4V88H865v-1h1.1v-2h1v2h0.9v1h-0.9v1.9c0.3-0.2,0.6-0.3,0.9-0.5v1.1c-0.3,0.2-0.6,0.3-0.9,0.5v3
			c0,0.7-0.4,1-1.1,1H865z M870.9,85v10.1h-1v-2.3h-2v-0.9h2v-1.7h-1.4v-0.9h1.4v-1.6h-1.6v-0.9h1.6V85H870.9z M873,85v1.7h1.8v0.9
			H873v1.6h1.5v0.9H873v1.7h1.9v0.9H873v2.3h-1V85H873z M881.8,85.8h3.9v1h-8v2.6c0,2.4-0.4,4.3-1.2,5.8l-0.8-0.7
			c0.6-1.2,0.9-2.9,0.9-5.1v-3.5h4.1c-0.1-0.3-0.3-0.5-0.4-0.7l1.1-0.2C881.5,85.2,881.7,85.5,881.8,85.8z M881.7,89.5
			c0.6-0.3,1.1-0.7,1.6-1.1h-4.7v-0.9h6v0.7c-0.7,0.7-1.4,1.3-2.1,1.8l0.4,0.3l-0.1,0.1h2.8v0.8c-0.5,0.9-1,1.6-1.5,2.1l-0.8-0.6
			c0.4-0.4,0.8-0.8,1.2-1.4h-2.2V94c0,0.7-0.4,1.1-1.1,1.1h-1.6l-0.2-1c0.5,0,1,0.1,1.5,0.1c0.3,0,0.4-0.2,0.4-0.4v-2.5H878v-1h3.6
			c-0.5-0.4-1.2-0.7-1.9-1.1l0.6-0.6C880.8,88.9,881.3,89.2,881.7,89.5z M892.4,84.9v1.9h3.9v5.3h-1v-0.6h-2.9v3.7h-1.1v-3.7h-2.9
			v0.6h-1v-5.3h3.9v-1.9H892.4z M891.3,90.5v-2.6h-2.9v2.6H891.3z M895.2,90.5v-2.6h-2.9v2.6H895.2z M899.9,88.6
			c-0.3,2-0.7,3.7-1.3,5.1l-0.9-0.6c0.6-1.5,0.9-3,1.2-4.7L899.9,88.6z M901.8,94.8c-0.9,0-1.3-0.4-1.3-1.3v-6.2h1v6
			c0,0.3,0.2,0.5,0.6,0.5h1.9c0.2,0,0.4-0.1,0.5-0.3c0.1-0.2,0.2-1,0.2-2.2l1,0.3c-0.1,1.6-0.3,2.5-0.5,2.8c-0.2,0.3-0.6,0.4-1,0.4
			H901.8z M904.6,87.9l-0.9,0.6c-0.6-0.9-1.3-1.9-2.2-3l0.9-0.5C903.3,86.1,904.1,87,904.6,87.9z M908,92.8l-1,0.4
			c-0.5-1.8-1.1-3.4-1.7-4.8l1-0.3C906.9,89.5,907.5,91.1,908,92.8z M914.9,85.9h3.9v1h-8.1v2.4c0,2.4-0.4,4.4-1.1,5.9l-0.9-0.8
			c0.6-1.2,0.9-2.9,0.9-5.1v-3.4h4c-0.2-0.3-0.3-0.5-0.5-0.8l1.2-0.2C914.5,85.2,914.7,85.5,914.9,85.9z M914.4,87.3
			c-0.1,0.3-0.2,0.5-0.2,0.7h4.1v0.9h-4.5c-0.3,0.6-0.6,1.2-0.9,1.7h1.7v-1.2h1v1.2h2.4v0.9h-2.4v1h3.2v0.9h-3.2v1.7h-1v-1.7h-3.9
			v-0.9h3.9v-1h-2.8l-0.2-0.9c0.4-0.5,0.7-1,1-1.7h-1.5V88h1.9c0.1-0.3,0.2-0.6,0.3-1L914.4,87.3z M923.6,90.4
			c0.4-0.9,0.7-1.8,0.9-2.9h-2c-0.5,1.2-1.2,2.2-2.1,3.1l-0.7-0.9c1.2-1.1,2.1-2.7,2.5-4.6l1,0.2c-0.1,0.4-0.2,0.9-0.3,1.3h2.6v0.9
			c-0.4,3.3-2,5.8-4.8,7.5l-0.7-0.9c1.3-0.7,2.4-1.7,3.1-2.8c-0.5-0.4-1.1-0.8-1.6-1l0.6-0.8C922.6,89.6,923.1,90,923.6,90.4z
			 M927.3,85v3.3c0.9,0.6,1.8,1.4,2.7,2.2l-0.6,1c-0.8-0.8-1.5-1.5-2.1-2v5.7h-1.1V85H927.3z M936.4,86h4.2v2.3h-1.1v-1.4h-7.4v1.4
			h-1.1V86h4.2c-0.1-0.3-0.3-0.6-0.4-0.9l1.1-0.2C936.1,85.2,936.3,85.6,936.4,86z M939.6,90.5v1h-3.3v2.3h4.2v1h-9.5v-1h4.2v-2.3
			H932v-1H939.6z M935.2,88.3c-0.9,0.8-1.9,1.4-3.2,1.9l-0.5-0.9c1.2-0.4,2.2-1,3-1.7L935.2,88.3z M940,89.4l-0.6,0.9
			c-1-0.8-2-1.5-3.1-1.9l0.6-0.8C938.1,88,939.1,88.6,940,89.4z M943.8,88.8V85h1v3.7h1.6v1h-1.6V90c0.5,0.5,1.1,1,1.6,1.5l-0.6,0.9
			c-0.4-0.6-0.7-1.1-1-1.5v4.1h-1V91c-0.5,0.9-1,1.8-1.6,2.5l-0.4-1.1c0.9-0.8,1.6-1.7,2-2.6h-1.8v-1H943.8z M943.4,88.2l-0.8,0.2
			c-0.2-0.8-0.4-1.5-0.6-2.2l0.9-0.3C943,86.6,943.2,87.3,943.4,88.2z M946.4,85.9c-0.1,0.9-0.2,1.7-0.5,2.4l-0.8-0.3
			c0.2-0.7,0.3-1.4,0.4-2.3L946.4,85.9z M950.7,85v6.1l1.1-0.2l0.2,1l-1.2,0.2v2.9h-1v-2.7l-3,0.5l-0.1-1l3.2-0.5V85H950.7z
			 M949.2,90l-0.7,0.7c-0.4-0.5-1-1.1-1.7-1.7l0.7-0.7C948.1,88.9,948.7,89.4,949.2,90z M949.5,87.3l-0.7,0.7c-0.4-0.5-1-1-1.8-1.6
			l0.7-0.7C948.4,86.3,949,86.8,949.5,87.3z M955.6,85v0.9h2.2c0,2-0.1,3.1-0.4,3.5c-0.2,0.4-0.6,0.6-1.2,0.6c-0.2,0-0.4,0-0.6-0.1
			l-0.3-0.9c0.3,0,0.5,0,0.6,0.1c0.4,0,0.6-0.1,0.7-0.4s0.1-0.9,0.2-1.9h-1.2c-0.2,1.5-0.9,2.6-2,3.4l-0.8-0.7
			c1-0.6,1.5-1.5,1.7-2.7h-1.4v-0.9h1.5V85H955.6z M957.3,90.9v-0.8h1v0.8h4.3v1h-3.4c0.8,0.8,1.9,1.5,3.6,2.1l-0.7,0.9
			c-1.8-0.9-3-1.9-3.8-3v3.3h-1v-3.3c-0.8,1.2-2.1,2.2-3.9,3l-0.6-1c1.6-0.6,2.8-1.2,3.6-2.1H953v-1H957.3z M962.3,85.7v4h-3.7v-4
			H962.3z M961.3,86.6h-1.7v2.1h1.7V86.6z M973.3,85.4v1h-7.8v7.3h8.2v1h-9.2v-9.3H973.3z M969.8,89.4c0.6-0.8,1.1-1.6,1.5-2.6
			l0.9,0.5c-0.5,1.1-1,2-1.6,2.8c0.8,0.7,1.5,1.5,2.2,2.2l-0.8,0.8c-0.6-0.7-1.3-1.4-2.1-2.2c-0.9,1-2,1.7-3.2,2.3l-0.6-0.9
			c1.2-0.5,2.2-1.2,3-2.1c-0.8-0.7-1.8-1.5-2.8-2.3l0.8-0.7C968.1,87.9,969,88.6,969.8,89.4z M975.9,87.8V85h1v2.8h1v1h-1v3
			c0.3-0.1,0.6-0.3,0.9-0.5v1c-0.9,0.5-1.8,0.8-2.8,1.2l-0.3-1.1c0.4-0.1,0.7-0.2,1.1-0.3v-3.4h-1v-1H975.9z M981.2,93
			c-1.1,0.4-2.2,0.7-3.5,1l-0.3-1c1.3-0.2,2.5-0.5,3.7-1V93z M981.6,86.4c0-0.5,0-0.9,0-1.4h1c0,0.5,0,0.9,0,1.4h0.9
			c-0.1-0.4-0.3-0.7-0.4-1l0.9-0.2c0.1,0.3,0.2,0.7,0.3,1.2h0.5v1h-2.2c0,1.4,0.1,2.6,0.2,3.6c0.4-0.8,0.6-1.8,0.8-2.8l0.9,0.4
			c-0.4,1.6-0.9,3-1.5,4.1c0.2,0.9,0.4,1.3,0.6,1.4c0.2,0,0.4-0.6,0.6-1.6l0.8,0.6c-0.4,1.3-0.8,2-1.4,2c-0.4,0-0.7-0.3-1-0.9
			c-0.1-0.2-0.2-0.4-0.2-0.6c-0.5,0.6-1.1,1.1-1.7,1.5l-0.6-0.8c0.8-0.5,1.5-1.1,2-1.9c-0.1-0.3-0.1-0.6-0.1-0.9
			c-0.1-1.1-0.2-2.4-0.3-4.1h-3.8v-1H981.6z M981.1,88.3v3.2h-2.9v-3.2H981.1z M980.2,89.1h-1.1v1.5h1.1V89.1z"/>
		<text transform="matrix(1 0 0 1 892.3333 117)" class="st20 st7 st8">05D010101B</text>
		<g>
			<defs>
				<rect id="SVGID_111_" x="842" y="132" width="162" height="64"/>
			</defs>
			<clipPath id="SVGID_112_">
				<use xlink:href="#SVGID_111_"  style="overflow:visible;"/>
			</clipPath>
			<rect x="837" y="127" class="st58" width="172" height="74"/>
		</g>
		<text transform="matrix(1 0 0 1 896 160)" class="st20 st7 st8">曙光供应商</text>
		<text transform="matrix(1 0 0 1 891 183)" class="st20 st7 st8">05D020101A</text>
		<g>
			<defs>
				<rect id="SVGID_113_" x="843.7" y="198" width="162" height="64"/>
			</defs>
			<clipPath id="SVGID_114_">
				<use xlink:href="#SVGID_113_"  style="overflow:visible;"/>
			</clipPath>
			<rect x="838.7" y="193" class="st59" width="172" height="74"/>
		</g>
		<text transform="matrix(1 0 0 1 897.6667 226)" class="st20 st7 st8">晓诚供应商</text>
		<text transform="matrix(1 0 0 1 892.6667 249)" class="st20 st7 st8">05D030101A</text>
		<g>
			<defs>
				<rect id="SVGID_115_" x="844" y="264" width="162" height="64"/>
			</defs>
			<clipPath id="SVGID_116_">
				<use xlink:href="#SVGID_115_"  style="overflow:visible;"/>
			</clipPath>
			<rect x="839" y="259" class="st60" width="172" height="74"/>
		</g>
		<text transform="matrix(1 0 0 1 891 292)" class="st20 st7 st8">华尔众供应商</text>
		<text transform="matrix(1 0 0 1 893 315)" class="st20 st7 st8">05D040101A</text>
		<g>
			<defs>
				<rect id="SVGID_117_" x="842.3" y="330" width="162" height="64"/>
			</defs>
			<clipPath id="SVGID_118_">
				<use xlink:href="#SVGID_117_"  style="overflow:visible;"/>
			</clipPath>
			<rect x="837.3" y="325" class="st61" width="172" height="74"/>
		</g>
		<path class="st20" d="M898.8,349.5v1h-3.9v0.7c0,0.6-0.1,1.2-0.1,1.7h4.9v1h-3.3v3.5c0,0.4,0.2,0.5,0.5,0.5h1.2
			c0.2,0,0.4-0.1,0.5-0.2c0.1-0.2,0.2-0.7,0.3-1.5l1,0.3c-0.1,1.2-0.3,1.8-0.5,2.1c-0.2,0.2-0.6,0.3-1,0.3h-1.8
			c-0.8,0-1.2-0.4-1.2-1.3v-3.8h-0.7c-0.2,0.9-0.5,1.8-0.8,2.5c-0.7,1.2-1.8,2.1-3.3,2.8l-0.6-0.9c1.5-0.7,2.5-1.6,3.1-2.6
			c0.2-0.5,0.4-1.1,0.6-1.7H890v-1h3.7c0.1-0.6,0.1-1.1,0.1-1.7v-0.7h-3.1v-1H898.8z M903.1,349.2c-0.1,0.3-0.2,0.6-0.3,0.9h1.9v1
			h-2.2c-0.2,0.4-0.3,0.8-0.5,1.1h2.4v0.9h-1v1.2h1.3v0.4c0.6-0.5,1.1-1,1.4-1.6h-0.9v-3.9h4.9v3.9h-3c-0.1,0.2-0.2,0.4-0.3,0.6h3.8
			c0,1.3-0.1,2.3-0.1,3.1c-0.1,0.8-0.2,1.3-0.4,1.6c-0.2,0.3-0.5,0.5-0.9,0.5h-1.1l-0.3-0.9c0.3,0,0.6,0,0.9,0
			c0.3,0,0.6-0.2,0.7-0.6c0.1-0.4,0.2-1.3,0.2-2.7h-0.4c-0.7,2.2-1.9,3.6-3.5,4.3l-0.6-0.8c1.5-0.6,2.5-1.8,3.2-3.5h-0.6
			c-0.5,1.1-1.3,2-2.4,2.7l-0.6-0.7c0.9-0.5,1.6-1.2,2.1-1.9h-0.6c-0.3,0.3-0.6,0.6-0.9,0.8l-0.6-0.8v0.5h-1.3v2.3
			c0.4-0.2,0.8-0.4,1.2-0.7l0.2,0.9c-0.7,0.4-1.4,0.8-2.3,1.1l-0.4-0.9c0.3-0.1,0.4-0.3,0.4-0.5v-2.2H901v-1h1.4v-1.2h-0.5v-0.7
			c-0.1,0.2-0.2,0.4-0.3,0.6l-0.8-0.5c0.7-1.1,1.1-2.3,1.4-3.6L903.1,349.2z M909.2,350.9v-0.7h-3v0.7H909.2z M909.2,351.7h-3v0.7h3
			V351.7z M917.4,349v1.6h3.5v6.3h-1v-0.6h-2.5v2.8h-1.1v-2.8h-2.5v0.7h-1v-6.4h3.5V349H917.4z M916.3,353v-1.4h-2.5v1.4H916.3z
			 M916.3,355.3v-1.4h-2.5v1.4H916.3z M919.8,353v-1.4h-2.5v1.4H919.8z M919.8,355.3v-1.4h-2.5v1.4H919.8z M927.3,349.4v1h-0.6v5.8
			c0.2-0.1,0.4-0.1,0.6-0.2v1l-0.6,0.2v2.1h-1v-1.8c-0.8,0.2-1.7,0.4-2.6,0.6l-0.3-1l0.6-0.1v-6.5h-0.6v-1H927.3z M925.6,351.7v-1.4
			h-1.2v1.4H925.6z M925.6,354v-1.3h-1.2v1.3H925.6z M925.6,356.4v-1.4h-1.2v1.7C924.8,356.6,925.2,356.5,925.6,356.4z M930.1,351.3
			c0.4-0.7,0.7-1.5,1-2.3l1,0.4c-0.3,0.7-0.6,1.4-0.9,1.9h1.5v1h-2.2v0.2c0,0.5,0,1-0.1,1.5h2.4v1h-2.1c0.3,1.1,1.1,2.3,2.3,3.4
			l-0.7,0.8c-1.1-1.2-1.9-2.3-2.2-3.4c-0.5,1.6-1.3,2.7-2.4,3.5l-0.6-0.8c1.1-0.7,1.9-1.8,2.2-3.4h-2v-1h2.2c0-0.4,0.1-0.8,0.1-1.2
			v-0.4h-2.1v-1H930.1z M929.6,350.7l-0.8,0.5c-0.2-0.5-0.6-1.1-1-1.7l0.8-0.5C929,349.7,929.3,350.2,929.6,350.7z M939,350.6
			c0.6,0.4,0.9,1,0.9,1.9h-1.2c-0.1-0.5-0.3-0.9-0.6-1.1c-0.3-0.2-0.7-0.3-1.3-0.3c-0.5,0-0.9,0.1-1.2,0.2c-0.3,0.2-0.5,0.5-0.5,0.9
			c0,0.4,0.2,0.6,0.6,0.8c0.2,0.1,0.6,0.3,1.4,0.5c1.1,0.3,1.7,0.6,2.1,0.8c0.7,0.4,1,1,1,1.7c0,0.7-0.3,1.3-0.8,1.7
			c-0.6,0.4-1.3,0.6-2.3,0.6c-1,0-1.7-0.2-2.2-0.6c-0.6-0.5-1-1.2-1.1-2.2h1.2c0.1,0.6,0.3,1.1,0.7,1.3c0.3,0.2,0.8,0.4,1.5,0.4
			c0.6,0,1.1-0.1,1.4-0.3s0.5-0.5,0.5-0.8c0-0.4-0.3-0.8-0.7-1c-0.2-0.1-0.7-0.3-1.6-0.5c-1-0.3-1.6-0.5-1.8-0.6
			c-0.6-0.4-0.9-0.9-0.9-1.6c0-0.7,0.3-1.2,0.9-1.6c0.6-0.4,1.2-0.6,2.1-0.6C937.8,350,938.5,350.2,939,350.6z M941.8,350.1l2.2,6.5
			h0l2.2-6.5h1.3l-2.8,7.9h-1.5l-2.8-7.9H941.8z M954.7,351.2c0.7,0.7,1,1.7,1,2.9c0,1.2-0.3,2.2-1,2.9c-0.7,0.8-1.6,1.2-2.8,1.2
			c-1.2,0-2.1-0.4-2.8-1.2c-0.7-0.7-1-1.7-1-2.9c0-1.2,0.3-2.2,1-2.9c0.7-0.8,1.6-1.2,2.8-1.2C953.1,350,954,350.4,954.7,351.2z
			 M949.9,351.9c-0.4,0.5-0.7,1.3-0.7,2.2c0,0.9,0.2,1.6,0.7,2.2c0.5,0.6,1.1,0.8,1.9,0.8s1.5-0.3,1.9-0.8c0.4-0.5,0.7-1.3,0.7-2.2
			c0-0.9-0.2-1.7-0.7-2.2c-0.5-0.6-1.1-0.8-1.9-0.8S950.4,351.3,949.9,351.9z"/>
		<text transform="matrix(1 0 0 1 891.3333 381)" class="st20 st7 st8">05D050101A</text>
		<g>
			<defs>
				<rect id="SVGID_119_" x="842.7" y="396" width="162" height="64"/>
			</defs>
			<clipPath id="SVGID_120_">
				<use xlink:href="#SVGID_119_"  style="overflow:visible;"/>
			</clipPath>
			<rect x="837.7" y="391" class="st62" width="172" height="74"/>
		</g>
		<path class="st20" d="M866.1,418.8V415h1v3.7h1.6v1h-1.6v0.2c0.5,0.5,1.1,1,1.6,1.5l-0.6,0.9c-0.4-0.6-0.7-1.1-1-1.5v4.1h-1V421
			c-0.5,0.9-1,1.8-1.6,2.5l-0.4-1.1c0.9-0.8,1.6-1.7,2-2.6h-1.8v-1H866.1z M865.7,418.2l-0.8,0.2c-0.2-0.8-0.4-1.5-0.6-2.2l0.9-0.3
			C865.3,416.6,865.5,417.3,865.7,418.2z M868.8,415.9c-0.1,0.9-0.2,1.7-0.5,2.4l-0.8-0.3c0.2-0.7,0.3-1.4,0.4-2.3L868.8,415.9z
			 M873.1,415v6.1l1.1-0.2l0.2,1l-1.2,0.2v2.9h-1v-2.7l-3,0.5l-0.1-1l3.2-0.5V415H873.1z M871.5,420l-0.7,0.7
			c-0.4-0.5-1-1.1-1.7-1.7l0.7-0.7C870.4,418.9,871,419.4,871.5,420z M871.8,417.3l-0.7,0.7c-0.4-0.5-1-1-1.8-1.6l0.7-0.7
			C870.7,416.3,871.3,416.8,871.8,417.3z M877.9,415v0.9h2.2c0,2-0.1,3.1-0.4,3.5c-0.2,0.4-0.6,0.6-1.2,0.6c-0.2,0-0.4,0-0.6-0.1
			l-0.3-0.9c0.3,0,0.5,0,0.6,0.1c0.4,0,0.6-0.1,0.7-0.4s0.1-0.9,0.2-1.9h-1.2c-0.2,1.5-0.9,2.6-2,3.4l-0.8-0.7
			c1-0.6,1.5-1.5,1.7-2.7h-1.4v-0.9h1.5V415H877.9z M879.7,420.9v-0.8h1v0.8h4.3v1h-3.4c0.8,0.8,1.9,1.5,3.6,2.1l-0.7,0.9
			c-1.8-0.9-3-1.9-3.8-3v3.3h-1v-3.3c-0.8,1.2-2.1,2.2-3.9,3l-0.6-1c1.6-0.6,2.8-1.2,3.6-2.1h-3.4v-1H879.7z M884.6,415.7v4h-3.7v-4
			H884.6z M883.6,416.6h-1.7v2.1h1.7V416.6z M891.5,424.9c-0.7,0-1.3-0.1-1.7-0.2c-0.4-0.1-0.8-0.4-1.1-0.8
			c-0.1-0.2-0.3-0.3-0.4-0.3c-0.2,0-0.6,0.5-1.2,1.5l-0.8-0.7c0.6-0.9,1.1-1.5,1.5-1.7v-3.1h-1.5v-1h2.5v4.2c0,0,0.1,0.1,0.1,0.2
			c0.3,0.3,0.5,0.5,0.8,0.7c0.3,0.2,0.8,0.3,1.4,0.3c0.6,0,1.4,0,2.2,0c0.5,0,1.1,0,1.6,0c0.6,0,1,0,1.3-0.1l-0.2,1h-2.6
			C892.9,424.9,892.2,424.9,891.5,424.9z M889,416.8l-0.7,0.7c-0.4-0.6-1-1.1-1.8-1.8l0.7-0.7C887.9,415.7,888.5,416.2,889,416.8z
			 M895.7,415.9c-1.4,0.4-3,0.6-4.7,0.6l0,1h4.6v0.7c-0.3,1-0.7,1.9-1.2,2.7c0.6,0.6,1.2,1.1,1.7,1.7l-0.7,0.8
			c-0.5-0.6-1-1.2-1.6-1.8c-0.7,0.7-1.5,1.4-2.4,1.9l-0.6-0.8c0.9-0.5,1.7-1.1,2.3-1.7c-0.6-0.5-1.2-0.9-1.8-1.4l0.6-0.7
			c0.6,0.4,1.2,0.9,1.8,1.4c0.4-0.6,0.7-1.2,1-1.8H891c-0.1,2.1-0.4,3.7-1.1,4.8l-0.9-0.5c0.7-1.1,1-2.6,1-4.6v-2.5
			c2,0,3.7-0.2,5.1-0.6L895.7,415.9z M900.3,415.4c-0.3,0.8-0.6,1.6-1,2.3v7.4h-1v-5.9c-0.3,0.4-0.6,0.8-1,1.2l-0.3-1
			c1-1.3,1.8-2.8,2.3-4.5L900.3,415.4z M901,416.9v6.2h-1v-6.2H901z M903.9,415.1c-0.1,0.3-0.2,0.5-0.3,0.7h3v0.9
			c-0.3,0.7-0.8,1.2-1.5,1.7c0.6,0.2,1.3,0.4,2,0.6l-0.4,1c-1-0.3-1.9-0.6-2.6-1c-0.8,0.4-1.7,0.7-2.7,1l-0.4-0.9
			c0.8-0.2,1.5-0.4,2.1-0.7c-0.4-0.3-0.7-0.6-0.9-1c-0.2,0.2-0.4,0.4-0.6,0.5l-0.6-0.8c0.9-0.6,1.5-1.4,1.8-2.3L903.9,415.1z
			 M901.4,424.3c1.3-0.3,2.3-0.7,3-1.1c0.8-0.4,1.4-1,2-1.7l0.7,0.6c-0.5,0.8-1.2,1.4-2.2,2c-1,0.6-2,1-3.1,1.3L901.4,424.3z
			 M905.2,420.1c-0.4,0.3-0.8,0.6-1.3,0.8c-0.4,0.2-1.1,0.4-1.8,0.7l-0.5-0.8c0.6-0.1,1.1-0.3,1.7-0.5c0.4-0.2,0.8-0.4,1.2-0.7
			L905.2,420.1z M906.2,421c-0.9,1.1-2.2,1.8-3.9,2.3l-0.4-0.9c1.6-0.4,2.8-1,3.7-1.9L906.2,421z M904.2,417.9
			c0.6-0.4,1-0.7,1.3-1.2H903c0,0,0,0,0,0C903.3,417.2,903.7,417.6,904.2,417.9z M908.3,420.5l-0.3-1.1c1.1-1.3,2-2.8,2.5-4.5l1,0.5
			c-0.3,0.8-0.6,1.7-1.1,2.4v7.4h-1.1v-5.8C909,419.7,908.7,420.1,908.3,420.5z M912.7,417.2V415h1.1v2.2h1.7V415h1v2.2h1.4v1h-1.4
			v2.3h1.7v1h-7.2v-1h1.6v-2.3h-1.3v-1H912.7z M914,422.3c-0.6,1.1-1.2,2-2,2.8l-0.9-0.7c0.8-0.7,1.4-1.6,2-2.6L914,422.3z
			 M915.5,420.6v-2.3h-1.7v2.3H915.5z M918.2,424.5l-0.9,0.6c-0.5-0.8-1.2-1.8-2-2.8l0.9-0.5C917,422.8,917.7,423.7,918.2,424.5z
			 M925.1,416h4v1H921v2.3c0,2.4-0.4,4.4-1.1,5.9l-0.9-0.8c0.6-1.2,0.9-2.9,0.9-5.1V416h4c-0.2-0.3-0.3-0.6-0.5-0.9l1.2-0.2
			C924.8,415.2,925,415.6,925.1,416z M925.6,423.7c0.6-1.5,1.2-3.4,1.7-5.6l1,0.3c-0.4,2-1,3.8-1.6,5.4h2.2v1h-7.8v-1H925.6z
			 M923.6,422.6l-1,0.3c-0.3-1.4-0.6-2.7-1.1-4l0.9-0.3C922.9,419.8,923.3,421.1,923.6,422.6z M925.6,421.9l-1,0.2
			c-0.2-1.4-0.6-2.8-0.9-4.1l0.9-0.3C924.9,419,925.3,420.4,925.6,421.9z M932.4,421.4l-0.6-0.8v4.4h-1v-7.1h2.3
			c-0.2-0.4-0.3-0.8-0.5-1.1h-2.2v-1h4.3c-0.1-0.3-0.2-0.5-0.3-0.7l1.2-0.2c0.1,0.3,0.2,0.6,0.3,0.9h4.3v1h-2.3
			c-0.2,0.4-0.4,0.8-0.5,1.1h2.4v5.9c0,0.8-0.4,1.3-1.1,1.3h-1.1l-0.3-0.9l1.1,0c0.3,0,0.4-0.2,0.4-0.6v-4.8h-6.9v1.7
			c0.9-0.5,1.6-1.1,2.2-1.7l0.7,0.6c-0.5,0.5-1,1-1.6,1.4h4.2v2.9H933V421C932.8,421.2,932.6,421.3,932.4,421.4z M936.1,417.9
			c0.2-0.4,0.4-0.7,0.5-1.1h-3c0.2,0.3,0.3,0.7,0.4,1.1H936.1z M936.3,421.9H934v1h2.3V421.9z M938.6,420.7l-0.8,0.8
			c-0.5-0.6-1.2-1.2-2.2-1.9l0.7-0.7C937.2,419.5,938,420.1,938.6,420.7z M950.8,414.9c-0.5,0.7-0.8,1.5-1.1,2.3
			c-0.3,0.9-0.5,1.9-0.5,2.9c0,0.9,0.2,1.9,0.5,2.9c0.2,0.8,0.6,1.5,1.1,2.3h-1c-0.5-0.7-0.9-1.5-1.2-2.2c-0.3-0.9-0.5-1.9-0.5-2.9
			c0-1,0.2-2,0.5-2.9c0.3-0.8,0.7-1.5,1.2-2.3H950.8z M954.2,420.3v-1.8h1v1.8h3.8v-1.8h1v1.8h2v1h-2v3.9h-1v-3.9h-3.8
			c-0.1,1.7-0.7,3-2,3.8l-0.8-0.7c1.1-0.7,1.7-1.7,1.8-3.1h-2v-1H954.2z M956.6,416.3V415h1.1v1.3h3.8v1h-3.8v2h-1.1v-2h-3.8v-1
			H956.6z M963.8,419.7V416h1.3c0.1-0.4,0.2-0.8,0.3-1.1l1.1,0.2c-0.1,0.4-0.2,0.7-0.3,1h1.4v8c0,0.7-0.3,1-1,1h-0.9l-0.3-1
			c0.3,0,0.6,0.1,0.9,0.1c0.2,0,0.3-0.2,0.3-0.5v-3h-1.8c-0.1,1.8-0.4,3.3-0.9,4.5l-0.8-0.7c0.5-1,0.7-2.3,0.8-3.8h-0.7v-1H963.8z
			 M966.6,417h-1.8v2.7h1.8V417z M966.4,423.1l-0.8,0.2c-0.2-0.7-0.4-1.4-0.7-2l0.8-0.3C965.9,421.7,966.2,422.4,966.4,423.1z
			 M966.4,419l-0.8,0.2c-0.2-0.6-0.4-1.1-0.7-1.6l0.7-0.2C965.9,417.9,966.2,418.4,966.4,419z M968.4,422.9c0.1-0.5,0.2-1.2,0.2-2.1
			v-2.4h3.2v5.5c0,0.1,0,0.2,0.2,0.2h0.2c0,0,0.1,0,0.1,0c0,0,0.1-0.1,0.1-0.1c0-0.1,0-0.6,0-1.4l0.9,0.3c0,0.6,0,1.1-0.1,1.4
			c0,0.3-0.1,0.5-0.3,0.6c-0.2,0.1-0.4,0.2-0.7,0.2h-0.4c-0.7,0-1.1-0.3-1.1-1v-4.7h-1.2v1.5c0,1-0.1,1.8-0.3,2.5
			c-0.2,0.7-0.5,1.3-1,2l-0.8-0.7C967.9,424,968.2,423.4,968.4,422.9z M969.8,416.3c-0.2-0.5-0.3-0.9-0.5-1.2l1.1-0.2
			c0.2,0.4,0.3,0.9,0.5,1.4h2v1h-5v-1H969.8z M975.5,414.9c0.5,0.7,0.9,1.5,1.2,2.3c0.3,0.9,0.5,1.9,0.5,2.9c0,1-0.2,1.9-0.5,2.9
			c-0.3,0.8-0.7,1.5-1.2,2.2h-1c0.5-0.8,0.8-1.5,1.1-2.3c0.3-1,0.5-1.9,0.5-2.9c0-1-0.2-1.9-0.5-2.9c-0.3-0.8-0.6-1.5-1.1-2.3H975.5
			z"/>
		<text transform="matrix(1 0 0 1 891.6667 447)" class="st20 st7 st8">05D060101A</text>
		<g>
			<defs>
				<rect id="SVGID_121_" x="843" width="162" height="64"/>
			</defs>
			<clipPath id="SVGID_122_">
				<use xlink:href="#SVGID_121_"  style="overflow:visible;"/>
			</clipPath>
			<rect x="838" y="-5" class="st63" width="172" height="74"/>
		</g>
		<path class="st20" d="M897.7,29l-0.2-1c0.3,0,0.6,0.1,0.9,0.1c0.3,0,0.5-0.1,0.5-0.3v-2.4c-0.4,0.1-0.7,0.3-1.1,0.4l-0.3-1.1
			c0.4-0.1,0.9-0.2,1.3-0.4V22h-1.1v-1h1.1v-2h1v2h0.9v1h-0.9v1.9c0.3-0.2,0.6-0.3,0.9-0.5v1.1c-0.3,0.2-0.6,0.3-0.9,0.5v3
			c0,0.7-0.4,1-1.1,1H897.7z M903.6,19v10.1h-1v-2.3h-2v-0.9h2v-1.7h-1.4v-0.9h1.4v-1.6H901v-0.9h1.6V19H903.6z M905.7,19v1.7h1.8
			v0.9h-1.8v1.6h1.5v0.9h-1.5v1.7h1.9v0.9h-1.9v2.3h-1V19H905.7z M914.5,19.8h3.9v1h-8v2.6c0,2.4-0.4,4.3-1.2,5.8l-0.8-0.7
			c0.6-1.2,0.9-2.9,0.9-5.1v-3.5h4.1c-0.1-0.3-0.3-0.5-0.4-0.7l1.1-0.2C914.2,19.2,914.3,19.5,914.5,19.8z M914.4,23.5
			c0.6-0.3,1.1-0.7,1.6-1.1h-4.7v-0.9h6v0.7c-0.7,0.7-1.4,1.3-2.1,1.8l0.4,0.3l-0.1,0.1h2.8v0.8c-0.5,0.9-1,1.6-1.5,2.1l-0.8-0.6
			c0.4-0.4,0.8-0.8,1.2-1.4h-2.2V28c0,0.7-0.4,1.1-1.1,1.1h-1.6l-0.2-1c0.5,0,1,0.1,1.5,0.1c0.3,0,0.4-0.2,0.4-0.4v-2.5h-3.1v-1h3.6
			c-0.5-0.4-1.2-0.7-1.9-1.1l0.6-0.6C913.5,22.9,914,23.2,914.4,23.5z M925,18.9v1.9h3.9v5.3h-1v-0.6H925v3.7H924v-3.7h-2.9v0.6h-1
			v-5.3h3.9v-1.9H925z M924,24.5v-2.6h-2.9v2.6H924z M927.9,24.5v-2.6H925v2.6H927.9z M932.6,22.6c-0.3,2-0.7,3.7-1.3,5.1l-0.9-0.6
			c0.6-1.5,0.9-3,1.2-4.7L932.6,22.6z M934.5,28.8c-0.9,0-1.3-0.4-1.3-1.3v-6.2h1v6c0,0.3,0.2,0.5,0.6,0.5h1.9
			c0.2,0,0.4-0.1,0.5-0.3c0.1-0.2,0.2-1,0.2-2.2l1,0.3c-0.1,1.6-0.3,2.5-0.5,2.8c-0.2,0.3-0.6,0.4-1,0.4H934.5z M937.3,21.9
			l-0.9,0.6c-0.6-0.9-1.3-1.9-2.2-3L935,19C936,20.1,936.8,21,937.3,21.9z M940.6,26.8l-1,0.4c-0.5-1.8-1.1-3.4-1.7-4.8l1-0.3
			C939.6,23.5,940.2,25.1,940.6,26.8z M947.5,19.9h3.9v1h-8.1v2.4c0,2.4-0.4,4.4-1.1,5.9l-0.9-0.8c0.6-1.2,0.9-2.9,0.9-5.1v-3.4h4
			c-0.2-0.3-0.3-0.5-0.5-0.8l1.2-0.2C947.2,19.2,947.4,19.5,947.5,19.9z M947,21.3c-0.1,0.3-0.2,0.5-0.2,0.7h4.1v0.9h-4.5
			c-0.3,0.6-0.6,1.2-0.9,1.7h1.7v-1.2h1v1.2h2.4v0.9h-2.4v1h3.2v0.9h-3.2v1.7h-1v-1.7h-3.9v-0.9h3.9v-1h-2.8l-0.2-0.9
			c0.4-0.5,0.7-1,1-1.7h-1.5V22h1.9c0.1-0.3,0.2-0.6,0.3-1L947,21.3z"/>
		<text transform="matrix(1 0 0 1 893 50)" class="st20 st7 st8">05D010101A</text>
	</g>
</switch>
</svg>
